<?xml version="1.0" standalone="no"?>
<!DOCTYPE svg PUBLIC "-//W3C//DTD SVG 1.1//EN" "http://www.w3.org/Graphics/SVG/1.1/DTD/svg11.dtd" >
<!--
2013-9-30: Created.
-->
<svg>
<metadata>
Created by iconfont
</metadata>
<defs>

<font id="iconfont" horiz-adv-x="1024" >
  <font-face
    font-family="iconfont"
    font-weight="500"
    font-stretch="normal"
    units-per-em="1024"
    ascent="896"
    descent="-128"
  />
    <missing-glyph />
    
    <glyph glyph-name="x" unicode="x" horiz-adv-x="1001"
d="M281 543q-27 -1 -53 -1h-83q-18 0 -36.5 -6t-32.5 -18.5t-23 -32t-9 -45.5v-76h912v41q0 16 -0.5 30t-0.5 18q0 13 -5 29t-17 29.5t-31.5 22.5t-49.5 9h-133v-97h-438v97zM955 310v-52q0 -23 0.5 -52t0.5 -58t-10.5 -47.5t-26 -30t-33 -16t-31.5 -4.5q-14 -1 -29.5 -0.5
t-29.5 0.5h-32l-45 128h-439l-44 -128h-29h-34q-20 0 -45 1q-25 0 -41 9.5t-25.5 23t-13.5 29.5t-4 30v167h911zM163 247q-12 0 -21 -8.5t-9 -21.5t9 -21.5t21 -8.5q13 0 22 8.5t9 21.5t-9 21.5t-22 8.5zM316 123q-8 -26 -14 -48q-5 -19 -10.5 -37t-7.5 -25t-3 -15t1 -14.5
t9.5 -10.5t21.5 -4h37h67h81h80h64h36q23 0 34 12t2 38q-5 13 -9.5 30.5t-9.5 34.5q-5 19 -11 39h-368zM336 498v228q0 11 2.5 23t10 21.5t20.5 15.5t34 6h188q31 0 51.5 -14.5t20.5 -52.5v-227h-327z" />
    

    
    <glyph glyph-name="weibiaoti101" unicode="&#58914;" d="M553.568 300l270.112 270.112c11.488 11.488 11.488 30.08 0 41.568-11.488 11.488-30.08 11.488-41.568 0L512 341.568 241.888 611.648c-11.488 11.488-30.08 11.488-41.568 0-11.488-11.488-11.488-30.08 0-41.568L470.432 300l-270.112-270.112c-11.488-11.488-11.488-30.08 0-41.568 11.488-11.488 30.08-11.488 41.568 0L512 258.432l270.112-270.112c11.488-11.488 30.08-11.488 41.568 0 11.488 11.488 11.488 30.08 0 41.568L553.568 300z"  horiz-adv-x="1024" />

    
    <glyph glyph-name="canju" unicode="&#58889;" d="M513.1637134222221 894.2290204444444c-279.2200749511111 0-505.57184113777777-226.3517650488889-505.57184113777777-505.57184113777777s226.3517650488889-505.57184113777777 505.57184113777777-505.57184113777777c279.21891100444446 0 505.5706760533333 226.3517650488889 505.5706760533333 505.57184113777777S792.3826232888889 894.2290204444444 513.1637134222221 894.2290204444444zM735.3985308444444 579.7901846755556c6.482794951111111-6.443209386666666 6.482794951111111-16.93234289777778 0-23.32781568l-93.74554453333333-93.71876579555556c-6.4338944-6.407115662222223-16.871799466666666-6.407115662222223-23.33014471111111 0-6.432730453333334 6.446701226666666-6.432730453333334 16.935835875555554 0 23.35343047111111l93.74670848000001 93.69315100444445C718.5046095644444 586.2229151288889 728.9925791288888 586.2229151288889 735.3985308444444 579.7901846755556zM570.5366801066667 534.308163128889l93.51850666666667 93.50337080888887c6.485123982222222 6.4338944 16.898578204444444 6.4338944 23.381373155555554 0 6.4338944-6.4292374755555555 6.4338944-16.879949368888887 0-23.326651733333335l-93.57090019555555-93.54179356444443c-19.97464576-20.02703928888889-19.97464576-52.64360106666667 0-72.67995420444444 9.712548977777777-9.711385031111112 22.60595256888889-15.067142826666666 36.37141276444444-15.067142826666666 13.693273884444444 0 26.561062684444444 5.369728568888889 36.24916195555556 15.079949653333333l93.56973624888887 93.51734272c6.481631004444444 6.408279608888889 16.92302904888889 6.408279608888889 23.35692344888889 0 6.430401422222222-6.456016213333333 6.430401422222222-16.945149724444445 0-23.36507335111111 0 0-93.59651498666668-93.48125013333333-93.54877838222222-93.48125013333333-15.921734542222223-15.943856355555553-37.04786830222222-24.756406044444443-59.62704213333333-24.756406044444443-22.527945386666666 0-43.80427264 8.786934897777776-59.70039352888889 24.73428423111111C537.6174023111112 447.8231620266667 537.6174023111112 501.3784052622222 570.5366801066667 534.308163128889zM327.7962979555556 120.73891726222223c-14.195085084444443-14.204400071111111-37.276070115555555-14.204400071111111-51.41876280888889 0-14.290557155555554 14.218370844444445-14.290557155555554 37.273742222222225 0 51.48745614222222l153.72536832 153.74632618666664 51.49327701333333-51.48862008888889L327.7962979555556 120.73891726222223zM780.0306176000001 120.69118065777775c-14.190428160000002-14.23117880888889-37.2457984-14.23117880888889-51.46649827555555 0l-165.58953472 165.62097151999998-0.051228444444444445 0c-16.09521493333333-16.124322702222223-42.25459655111111-16.124322702222223-58.29974584888889 0L279.3057371022222 511.64283107555553c-8.06157880888889 8.109315413333333-12.141268764444444 18.748643555555553-12.115653973333334 29.349550079999997l0 54.60660224 0.17580828444444443 0c-0.42613191111111104 9.80103623111111 3.0038812444444445 19.787194595555555 10.539199146666668 27.30970453333333 14.191592106666667 14.219535928888888 37.22484167111111 14.219535928888888 51.467663359999996 0l450.6613577955556-450.7195721955555C794.3025459200001 157.94978702222215 794.3025459200001 134.88160881777776 780.0306176000001 120.69118065777775z"  horiz-adv-x="1024" />

    
    <glyph glyph-name="32pxgouwulan" unicode="&#59020;" d="M897.146 443.298l-43.982 0L673.24 683.197c0 8.841-7.154 15.994-15.993 15.994-8.84 0-15.993-7.153-15.993-15.994L821.18 443.298 205.437 443.298l179.925 239.899c0 8.841-7.153 15.994-15.994 15.994s-15.992-7.153-15.992-15.994L173.45 443.298l-43.981 0c-35.329 0-63.973-28.644-63.973-63.973 0-25.129 14.5-46.864 35.581-57.327l156.338-406.478c0-8.826 7.154-15.995 15.994-15.995l479.798 0c8.841 0 15.994 7.169 15.994 15.995L925.54 322c21.081 10.462 35.579 32.197 35.579 57.325C961.119 414.654 932.475 443.298 897.146 443.298zM385.362-68.487l-102.11 0-36.908 95.961 139.018 0L385.362-68.487zM385.362 59.459 241.422 59.459c-2.433 0-4.729-0.559-6.793-1.529l-37.496 97.489 188.229 0L385.362 59.459zM385.362 187.404 184.831 187.404 135.62 315.353l249.742 0L385.362 187.404zM609.268-68.487 417.349-68.487l0 95.961 191.919 0L609.268-68.487zM609.268 59.459 417.349 59.459l0 95.96 191.919 0L609.268 59.459zM609.268 187.404 417.349 187.404 417.349 315.353l191.919 0L609.268 187.404zM743.365-68.487 641.254-68.487l0 95.961 139.02 0L743.365-68.487zM791.987 57.929c-2.064 0.972-4.361 1.53-6.795 1.53L641.254 59.459l0 95.96 188.229 0L791.987 57.929zM841.785 187.404 641.254 187.404 641.254 315.353l249.742 0L841.785 187.404zM897.146 347.339 129.469 347.339c-17.68 0-31.986 14.321-31.986 31.985 0 17.665 14.307 31.987 31.986 31.987l767.678 0c17.68 0 31.988-14.322 31.988-31.987C929.135 361.66 914.826 347.339 897.146 347.339z"  horiz-adv-x="1024" />

    
    <glyph glyph-name="fangdajing" unicode="&#58891;" d="M464.433658 36.588569c-213.688847 0-387.540384 173.851537-387.540384 387.540384S250.744811 811.669336 464.433658 811.669336s387.540384-173.851537 387.540384-387.540384S678.121482 36.588569 464.433658 36.588569zM464.433658 777.969816c-195.110723 0-353.840864-158.730141-353.840864-353.840864s158.730141-353.840864 353.840864-353.840864 353.840864 158.730141 353.840864 353.840864S659.544381 777.969816 464.433658 777.969816zM925.33691-43.669336 706.292078 141.675976 728.061894 167.39473 947.106726-17.950582Z"  horiz-adv-x="1024" />

    
    <glyph glyph-name="zan" unicode="&#58988;" d="M227.429291 437.736878l0-439.897845L100.978321-2.160967 100.978321 437.736878 227.429291 437.736878M264.268314 474.575902 64.139298 474.575902l0-513.575892 200.129017 0L264.268314 474.575902 264.268314 474.575902zM529.370111 770.160967c9.071609 0 36.418444-5.799076 53.788044-32.281217 11.538801-17.59268 16.916275-41.307801 15.985066-70.487378-1.27504-39.889499-14.288424-88.585571-38.679951-144.737452l-0.01535-0.034792c-0.200568-0.390903-0.594541-1.11745-0.893346-1.666966-1.480724-2.731204-3.50994-6.471388-5.092995-10.819416-5.430686-14.915711-2.7486-30.318516 7.161097-41.343617 7.773034-8.704243 18.503423-13.491269 30.270421-13.491269 5.729491 0 10.242272 1.124614 13.537318 1.946328 2.033309 0.50756 3.384074 0.844228 5.314029 0.997724 21.658276 1.645476 60.027142 3.402493 102.775758 3.402493 52.774971 0 99.724259-2.650363 135.774313-7.66661 51.42216-7.154957 67.296709-17.21508 70.834278-20.001543 1.659803-6.203282 4.489244-22.589484 1.759063-56.865125-2.424212-30.42801-8.53949-66.109674-17.682731-103.189174-20.832468-84.47188-53.527101-162.04463-89.697905-212.8262-20.555152-28.857235-52.438303-63.256696-87.598081-63.256696L315.765175-2.159944l-5.432733 455.685413c16.372899 9.969049 41.007973 26.01142 66.424852 46.39261 62.029752 49.737798 97.397261 99.81124 105.119129 148.821467 7.30436 46.298466 15.922644 78.997192 26.348088 99.966783 5.215792 10.490935 9.770528 15.639189 12.672624 18.10945 3.053546 2.600221 5.282307 3.123131 7.28594 3.305279 0.137123 0.013303 0.528026 0.041956 1.182942 0.041956l0.00307 0L529.370111 770.163013M529.366018 807.001013c-1.630127 0-3.160993-0.068562-4.569062-0.198521-41.508369-3.773953-64.215534-56.646138-79.3093-152.323221-15.072277-95.655594-172.248016-179.902346-172.248016-179.902346l6.123464-513.575892L726.90914-38.998967c157.068292 0 258.286578 397.802098 227.408313 487.095797-14.193257 41.020252-140.319839 50.387597-240.796228 50.387597-43.927465 0-82.95227-1.790786-105.576547-3.508917-8.566096-0.665149-13.129019-2.836605-16.051581-2.836605-1.153266 0-2.051729 0.338714-2.838651 1.24127-2.264577 2.436492 3.258207 9.918907 5.197372 14.598486C701.12694 754.016265 574.845839 807.004083 529.366018 807.001013L529.366018 807.001013z"  horiz-adv-x="1024" />

    
    <glyph glyph-name="icon" unicode="&#58883;" d="M564.424488-59.288059 459.574488-59.288059c-21.298072 0-38.628786 17.331737-38.628786 38.628786l0 64.37824c-29.737278 7.938809-58.347896 19.815301-85.168752 35.354206l-45.581128-45.581128c-14.570857-14.573927-40.018436-14.573927-54.591339 0l-74.169233 74.049506c-15.034415 15.159258-15.025205 39.696094-0.005117 54.716182l45.601594 45.601594c-15.498996 26.76662-27.355021 55.335283-35.292807 85.029582l-64.458057 0c-21.298072 0-38.628786 17.331737-38.628786 38.628786L68.652078 436.365648c0 21.298072 17.331737 38.629809 38.628786 38.629809l64.431451 0c7.93267 29.737278 19.793812 58.33664 35.320437 85.147262l-45.601594 45.601594c-15.057951 15.050788-15.057951 39.549761 0 54.600549l74.17435 74.16514c14.57188 14.57188 40.019459 14.57188 54.591339 0l45.581128-45.580105c26.832112 15.530718 55.44273 27.402093 85.168752 35.340903L420.946726 788.659273c0 21.298072 17.331737 38.628786 38.628786 38.628786l104.85 0c21.297049 0 38.628786-17.331737 38.628786-38.628786l0-64.388473c29.724998-7.938809 58.335616-19.810185 85.167728-35.340903l45.581128 45.580105c14.57188 14.57188 40.031738 14.57188 54.602595 0l74.164117-74.16514c15.055904-15.050788 15.055904-39.549761 0-54.600549l-45.601594-45.601594c15.525602-26.810622 27.387767-55.409984 35.31839-85.147262l64.431451 0c21.299095 0 38.628786-17.33276 38.628786-38.629809l0-104.848976c0-21.298072-17.32969-38.628786-38.628786-38.628786l-64.458057 0c-7.936763-29.694299-19.793812-58.262962-35.290761-85.029582l45.601594-45.601594c15.026228-15.158235 15.012925-39.695071 0-54.711066l-74.164117-74.059739c-14.541181-14.670118-40.046065-14.69263-54.617945 0.020466l-45.565778 45.565778c-26.821879-15.538905-55.432497-27.415396-85.167728-35.354206l0-64.37824C603.053274-41.957345 585.721537-59.288059 564.424488-59.288059zM334.026074 92.931808l3.691065-2.199085c28.211529-16.801664 58.530045-29.385261 90.105181-37.394678l4.15974-1.055029 0-72.942289c0-15.21247 12.379958-27.591405 27.592428-27.591405l104.85 0c15.211447 0 27.591405 12.378935 27.591405 27.591405l0 72.942289 4.15974 1.055029c31.574113 8.009418 61.892629 20.593014 90.105181 37.394678l3.690042 2.199085 51.633984-51.638077c10.43363-10.529821 28.577872-10.514471 38.978756-0.01842l74.181513 74.078159c10.729365 10.724249 10.724249 28.278043-0.01842 39.115879l-51.638077 51.639101 2.194992 3.690042c16.766872 28.15934 29.326932 58.427714 37.347606 89.963964l1.054005 4.161786 73.010851 0c15.214517 0 27.594475 12.377912 27.594475 27.591405L944.310541 436.365648c0 15.213493-12.379958 27.592428-27.594475 27.592428l-72.993454 0-1.056052 4.15974c-8.002254 31.580253-20.571525 61.888536-37.362956 90.083691l-2.194992 3.691065 51.655474 51.65445c10.749832 10.751878 10.749832 28.245298 0 38.995129l-74.164117 74.164117c-10.401908 10.400884-28.595268 10.400884-38.996153 0l-51.633984-51.631938-3.690042 2.193968c-28.221762 16.797571-58.540278 29.375028-90.105181 37.383422l-4.15974 1.056052 0 72.951499c0 15.213493-12.379958 27.592428-27.591405 27.592428L459.574488 816.251701c-15.21247 0-27.592428-12.378935-27.592428-27.592428l0-72.951499-4.15974-1.056052c-31.56388-8.008394-61.882396-20.585851-90.105181-37.383422l-3.691065-2.193968-51.631938 51.631938c-10.400884 10.400884-28.584012 10.400884-38.98592 0l-74.173326-74.164117c-10.751878-10.750855-10.751878-28.244274 0-38.995129l51.65445-51.65445-2.193968-3.691065c-16.792455-28.195156-29.359678-58.503439-37.362956-90.083691l-1.056052-4.15974-72.994478 0c-15.213493 0-27.592428-12.378935-27.592428-27.592428l0-104.848976c0-15.213493 12.378935-27.591405 27.592428-27.591405l73.011874 0 1.055029-4.161786c8.019651-31.53625 20.580734-61.804624 37.346583-89.963964l2.193968-3.690042-51.65445-51.655474c-10.735505-10.734482-10.730389-28.28623 0.01535-39.118949l74.153884-74.03518c10.412141-10.412141 28.589129-10.407024 38.991036-0.005117L334.026074 92.931808zM511.999488 253.632837c-71.878051 0-130.361023 58.481949-130.361023 130.362047s58.481949 130.362047 130.361023 130.362047c71.879074 0 130.361023-58.481949 130.361023-130.362047S583.878562 253.632837 511.999488 253.632837zM511.999488 503.319549c-65.794495 0-119.323643-53.530171-119.323643-119.324666s53.530171-119.323643 119.323643-119.323643c65.796542 0 119.324666 53.529147 119.324666 119.323643S577.79603 503.319549 511.999488 503.319549z"  horiz-adv-x="1024" />

    
    <glyph glyph-name="xiazai" unicode="&#58896;" d="M989.830803-93.866667 34.169171-93.866667 34.169171 861.866668 342.150254 861.866667 342.150254 816.358058 79.677778 816.358058 79.677778-48.358072 944.322208-48.358072 944.322208 816.358058 681.849747 816.358059 681.849747 861.866668 989.830803 861.866668 989.830803-93.866667ZM312.701539 442.254746C303.813886 451.1424 289.412064 451.1424 280.524412 442.254746 271.636758 433.367091 271.636758 418.965272 280.524412 410.077617L495.887544 194.714484C497.990001 192.607249 500.50817 190.939621 503.2987 189.783272 506.079676 188.631699 509.027891 188.029631 511.990443 188.029631 514.952994 188.029631 517.905988 188.631699 520.682185 189.783272 523.472719 190.939621 525.995667 192.607249 528.093341 194.714484L743.456474 410.077617C752.344129 418.965272 752.344129 433.367095 743.456474 442.254746 734.568823 451.1424 720.167001 451.1424 711.279346 442.254746L534.735193 265.710589 534.735189 839.112362C534.735189 851.679313 524.557394 861.866667 511.980885 861.866667 499.404377 861.866667 489.226581 851.679314 489.226581 839.112362L489.226581 265.710589 312.701539 442.254746 312.701539 442.254746Z"  horiz-adv-x="1024" />

    
    <glyph glyph-name="clock" unicode="&#58893;" d="M512.001-60.078c-245.655 0-445.501 199.859-445.501 445.5 0 245.649 199.847 445.501 445.501 445.501 245.654 0 445.5-199.853 445.5-445.501-0.001-245.642-199.848-445.5-445.5-445.5zM512.001 779.827c-217.474 0-394.405-176.931-394.405-394.405s176.931-394.405 394.405-394.405c217.473 0 394.405 176.931 394.405 394.405-0 217.475-176.933 394.405-394.405 394.405zM651.182 196.679c-6.761 0-13.523 2.675-18.552 7.978l-139.182 146.904c-4.491 4.747-6.998 11.034-6.998 17.571l-0 266.131c0 14.109 11.439 25.548 25.549 25.548 14.108 0 25.549-11.44 25.549-25.548v-255.952l132.183-139.512c9.705-10.241 9.27-26.415-0.973-36.115-4.938-4.684-11.264-7.005-17.575-7.005z"  horiz-adv-x="1024" />

    
    <glyph glyph-name="renwu" unicode="&#58887;" d="M512 834c-248.276 0-450-201.724-450-450s201.724-450 450-450 450 201.724 450 450c0 248.276-201.724 450-450 450zM356.828 430.553c0 93.103 68.276 170.69 155.172 170.69 86.897 0 155.172-74.483 155.172-170.69 0-18.621-3.103-37.241-9.31-55.863 9.31-3.103 15.517-12.413 15.517-24.828 0-15.517-12.413-27.931-27.931-27.931 0 0 0 0 0 0-6.207-62.069-65.172-152.069-136.553-152.069-71.379 0-130.344 90-136.553 152.069 0 0 0 0 0 0-15.517 0-27.931 12.413-27.931 27.931 0 12.413 6.207 21.724 15.517 24.828 0 21.724-3.103 37.241-3.103 55.863zM242 64.34400000000005c46.553 27.931 96.207 55.863 148.966 68.276 0 0 3.103 6.207 3.103 6.207h6.207c3.103 0 6.207-6.207 6.207-6.207 27.931-15.517 65.172-27.931 105.518-27.931 37.241 0 77.587 12.413 105.518 27.931 3.103 0 6.207 6.207 6.207 6.207h9.31c3.103 0 6.207-6.207 6.207-6.207 49.656-12.413 96.207-37.241 142.759-65.172-74.482-62.069-167.587-102.413-270-102.413-102.413 3.103-198.621 37.241-270 99.31z"  horiz-adv-x="1024" />

    
    <glyph glyph-name="qianbao" unicode="&#58992;" d="M1006.186815 264.042726c-38.531716 138.183342-121.04687 244.850322-250.032735 317.39591-14.819182 8.362926-30.500563 15.302505-45.788733 22.893342 0.092159 0.21299 0.167934 0.681977 0.454652 0.924663 2.560999 2.394088 5.182413 4.726737 7.773107 7.09113 26.545914 24.393487 50.393615 52.575738 62.833044 85.848242 6.045636 16.121697 7.530422 23.151388 11.727756 38.12212 7.802803 47.273518-1.167348 76.03125-30.409428 99.925031-39.499387 32.287426-84.34912 36.105884-131.697389 17.151831-3.287008-1.317875-5.46913-2.257898-8.757162 0.711673-60.955047 55.394782-158.81981 55.909849-220.198789 1.212404-2.84874-2.545639-4.924367-3.181537-8.651691-1.545201-24.909578 10.9997-50.939402 13.363068-77.652226 8.060849-50.651661-10.060701-92.5308-51.469829-85.105849-108.000215 6.454208-49.07574 26.241789-91.516026 60.348845-128.106257 6.999995-7.515062 14.440306-14.652272 21.969703-22.257445-1.877997-0.878583-3.741659-1.787886-5.63604-2.621414C133.151455 524.287712 15.453032 357.907785 1.680367 168.664211c-3.818458-52.333052-0.635898-104.136701 13.045631-155.470339 21.530412-80.818403 95.50037-141.379214 184.334566-141.182608 209.33528 0.470011 418.654176-0.060415 627.988432 0.258045 67.243369 0.106495 119.016298 29.105889 156.576248 81.924312 19.092292 26.849015 28.0307 57.364938 33.213113 89.287824C1028.944991 117.770889 1026.429047 191.436722 1006.186815 264.042726L1006.186815 264.042726zM946.231182 90.679188c-4.318165-27.99998-9.016231-57.348555-24.923914-80.878819-31.303371-46.303799-91.259004-71.727421-147.289684-71.818556-174.440776-0.273405-348.880528 0.18227-523.305944-0.211966-74.016038-0.18227-143.833718 40.666735-161.774021 111.515572-11.393936 44.969541-10.166172 101.242906-6.984635 147.10639 11.485071 165.849501 162.773435 322.258839 307.956772 389.381377 1.57592 0.727033-41.834084 38.484613-47.68209 45.060676-28.409576 32.09082-46.166585 58.061252-51.530244 101.060636-6.605759 52.788728 33.196729 68.364638 57.272779 73.394476 22.272804 4.650962 69.546322-18.908998 71.939387-16.66646 51.136008 47.939111 132.683492 47.485484 183.486703-1.060854 2.725861-2.606054 4.544467-1.787886 7.287736-0.636922 39.469691 16.621404 72.83333 26.863351 105.773037-1.43973 24.363792-20.954929 24.923914-36.50012 18.939717-69.379412-3.621852-13.667193-26.151678-50.151954-34.758313-61.454754-31.787719-41.772644-62.909844-68.439389-65.076606-70.530377-0.227326-0.227326 67.970402-31.969989 79.379697-40.59096 105.27333-79.545584 176.244022-141.076113 208.365562-262.183399C940.15585 217.725615 956.307243 155.78549 946.231182 90.679188L946.231182 90.679188zM946.231182 90.679188M632.260518 190.84588l-21.395245 0-33.045178 0-32.106179 0 0 36.136604 32.062148 0c0.01536 0 0.01536 0 0.045056 0l54.440423 0c18.589513 0 33.665716 14.969708 33.665716 33.439414s-15.076203 33.454774-33.665716 33.454774l-21.395245 0-33.045178 0-32.106179 0 0 16.772955 67.485031 66.197875c0.621562 0.530427 1.227764 1.075189 1.817582 1.666032l18.137933 17.909583 4.575187 4.485076-0.01536 0.029696 15.909731 15.697765c13.181822 13.030272 13.225854 34.212527 0.119807 47.303214-13.120383 13.091711-34.439852 13.136766-47.621674 0.121855l-20.257592-20.014907-69.075287-67.772772-73.969959 72.575284-20.242232 20.000571c-13.181822 13.030272-34.500268 12.969856-47.621674-0.121855-13.121407-13.090687-13.060991-34.257582 0.120831-47.287854l15.909731-15.712101-0.01536-0.029696 4.576211-4.485076 18.121549-17.909583c0.590842-0.576506 1.212404-1.121269 1.833966-1.666032l62.879124-61.698464 0-26.060543-32.09082 0L414.910469 293.877696l-23.061277 0c-18.590537 0-33.66674-14.985068-33.66674-33.454774s15.076203-33.439414 33.66674-33.439414l54.439399 0c0.01536 0 0.03072 0 0.045056 0l32.045764 0 0-36.136604-32.09082 0L414.910469 190.846904l-23.061277 0c-18.590537 0-33.66674-14.985068-33.66674-33.454774 0-18.453322 15.076203-33.424054 33.66674-33.424054l54.439399 0c0.01536 0 0.03072 0 0.045056 0l32.045764 0 0-21.803817 0-1.030134c0-18.469706 15.076203-33.439414 33.6821-33.439414 18.591561 0 33.66674 14.969708 33.66674 33.439414l0 22.833951 32.045764 0c0.01536 0 0.029696 0 0.045056 0l54.440423 0c18.589513 0 33.665716 14.969708 33.665716 33.424054C665.926234 175.860812 650.851055 190.84588 632.260518 190.84588L632.260518 190.84588zM632.260518 190.84588"  horiz-adv-x="1025" />

    
    <glyph glyph-name="xinli" unicode="&#58884;" d="M88.746642 284.086857C130.346642 237.165714 174.250642 204.416 260.358071 149.76 375.338642 76.708571 484.943214-17.316571 495.091785-50.998857 500.412928-68.662857 525.574071-68.224 530.273499-50.377143 538.099785-20.717714 643.681499 69.229714 764.312357 151.990857 766.104357 153.234286 804.156928 179.163429 815.457499 187.026286 959.201499 286.939429 1023.786642 371.328 1024.060928 512.109714 1024.847214 844.214857 637.921499 917.430857 513.816357 661.156571 368.828928 922.477714-7.381358 809.6 0.060928 509.714286 2.255214 420.150857 32.847214 347.136 88.746642 284.086857ZM495.110071 616.667429C501.546642 602.112 522.191214 602.148571 528.591214 616.704 643.699785 878.756571 988.184357 804.754286 987.489499 512.182857 987.251785 386.285714 929.505499 310.838857 794.575214 217.051429 783.457499 209.316571 745.514642 183.460571 743.612928 182.144 612.522642 92.196571 545.468928 26.441143 514.346642-12.562286 514.346642-12.562286 522.246071-22.893714 514.255214-12.141714 476.495214 38.619429 381.683785 116.004571 279.960357 180.626286 196.632357 233.526857 154.758071 264.758857 116.102071 308.352 65.761499 365.129143 38.607214 429.970286 36.632357 510.628571 29.866642 782.537143 379.727214 877.750857 495.110071 616.667429Z"  horiz-adv-x="1025" />

    
    <glyph glyph-name="lingdang1" unicode="&#58930;" d="M599.320765 54.841282c-5.392824-40.203654-37.227879-71.200622-76.083839-71.200622s-70.691015 30.996968-76.083839 71.200622L599.320765 54.841282zM496.752738 803.456281l27.695782 0c15.296381 0 27.695782-12.094456 27.695782-27.01426s-12.399401-27.01426-27.695782-27.01426l-27.695782 0c-15.296381 0-27.695782 12.094456-27.695782 27.01426S481.456357 803.456281 496.752738 803.456281zM877.653911 92.971717c-0.224104 0-0.448208 0-0.61603 0L144.157237 92.971717c-4.814656 0-9.200546 2.799766-11.253298 7.166213-2.034333 4.367471-1.381463 9.517771 1.717108 13.21293l123.472126 148.180877L258.093173 522.360208c0 139.260717 113.282043 252.54276 252.504898 252.54276 139.241274 0 252.523317-113.282043 252.523317-252.54276l0-260.865309L884.652302 115.665579c3.284813-2.240017 5.430686-6.008854 5.430686-10.264784C890.082988 98.533386 884.521319 92.971717 877.653911 92.971717zM170.677241 117.829871l679.840636 0L741.155097 249.065821c-1.866511 2.238994-2.892887 5.03876-2.892887 7.950066L738.26221 522.360208c0 125.561717-102.121865 227.683583-227.665163 227.683583-125.524878 0-227.646744-102.121865-227.646744-227.683583l0-265.344321c0-2.911306-1.026376-5.711072-2.892887-7.950066L170.677241 117.829871z"  horiz-adv-x="1024" />

    
    <glyph glyph-name="huati" unicode="&#59110;" d="M821.4 781 202.6 781c-31.9 0-58-26.1-58-58l0-678c0-31.9 26.1-58 58-58l618.7 0c31.9 0 58 26.1 58 58L879.3 723C879.4 754.9 853.3 781 821.4 781zM334 129.2l-87 0 0 87 87 0L334 129.2zM334 340.5l-87 0 0 87 87 0L334 340.5zM334 551.8l-87 0 0 87 87 0L334 551.8zM776.4 129.2 419.9 129.2l0 87 356.5 0L776.4 129.2 776.4 129.2zM776.4 340.5 419.9 340.5l0 87 356.5 0L776.4 340.5 776.4 340.5zM776.4 551.8 419.9 551.8l0 87 356.5 0L776.4 551.8 776.4 551.8z"  horiz-adv-x="1024" />

    
    <glyph glyph-name="shaixuan" unicode="&#59000;" d="M862.9248 832 161.0752 832c-53.5552 0-97.0752-43.1104-97.0752-96.1536 0-49.664 38.4-90.8288 87.3472-95.6416l263.9872-259.9936 0-383.5904c0-39.0144 18.1248-52.6336 28.9792-57.2416 3.9936-1.7408 9.5232-3.3792 16.384-3.3792 11.776 0 27.5456 4.7104 45.6704 21.9136l104.0384 98.0992L610.4064 385.024l260.5056 255.0784c49.7664 3.9936 89.088 45.4656 89.088 95.744C960 788.8896 916.48 832 862.9248 832zM861.9008 682.3936l-8.704 0L567.7056 402.944l0-328.4992-90.624-85.504c-9.216-8.704-15.1552-10.3424-15.2576-10.752-1.024 0.9216-3.7888 6.2464-3.7888 18.5344l0 401.408L169.3696 682.3936l-8.704 0c-29.7984 0.2048-54.0672 24.1664-54.0672 53.4528 0 28.9792 24.8832 53.4528 54.3744 53.4528l701.8496 0c30.0032 0 54.3744-23.9616 54.3744-53.4528C917.2992 706.8672 892.416 682.3936 861.9008 682.3936z"  horiz-adv-x="1024" />

    
    <glyph glyph-name="weibo-logo" unicode="&#58895;" d="M827.713 372.684c-17.501 11.048-37.125 19.998-58.83 26.851-4.574 1.531-7.817 2.667-9.722 3.431-1.903 0.762-4.198 2.187-6.853 4.284-2.671 2.099-3.535 4.482-2.569 7.145 0.958 2.665 1.807 6.471 2.569 11.421 17.125 43.794 17.125 77.687 0 101.679-17.531 23.229-46.649 34.848-87.411 34.848-40.746 0-87.587-11.239-140.514-33.703l-3.437-1.144c-2.271-0.762-4.846-1.421-7.697-1.997-2.863-0.576-5.626-0.666-8.289-0.288-2.657 0.376-4.564 1.709-5.708 3.996-1.144 2.287-0.948 6.094 0.574 11.427 17.129 55.222 13.327 95.014-11.431 119.392-28.177 28.179-75.112 29.512-140.81 3.996-65.68-25.522-130.704-70.456-195.070-134.822-48.744-48.744-86.353-97.871-112.819-147.379-26.469-49.516-39.696-96.153-39.696-139.958 0-41.124 12.377-79.112 37.125-113.964 24.76-34.852 57.409-63.601 97.971-86.259 40.552-22.649 86.351-40.37 137.379-53.127 51.030-12.749 103.397-19.132 157.093-19.132 53.697 0 105.202 5.896 154.514 17.701 49.312 11.811 92.353 27.607 129.094 47.415 36.757 19.796 68.842 42.171 96.257 67.123 27.429 24.944 48.175 51.016 62.273 78.261 14.092 27.223 21.144 53.792 21.144 79.678 0 24.37-6.463 46.567-19.426 66.555-12.939 20.014-28.181 35.53-45.71 46.573zM641.221 110.738c-55.79-45.124-126.151-72.067-211.071-80.824-55.602-5.334-107.873-1.335-156.805 11.995-48.934 13.339-88.639 34.086-119.102 62.267-30.466 28.191-47.413 60.564-50.84 97.127-5.336 55.598 19.898 105.958 75.688 151.086 55.79 45.138 126.151 72.079 211.073 80.836 55.602 5.338 107.869 1.333 156.793-11.997 48.93-13.327 88.643-34.082 119.112-62.261 30.47-28.189 47.409-60.562 50.832-97.119 5.326-55.608-19.89-105.968-75.68-151.111zM446.717 347.528c-40.364 10.286-80.448 6.657-120.244-10.858-39.8-17.515-68.641-43.974-86.543-79.4-17.899-36.166-19.142-71.875-3.715-107.101 15.426-35.228 43.507-59.312 84.258-72.271 42.269-13.701 84.928-11.421 127.957 6.869 43.033 18.281 73.113 46.847 90.266 85.682 17.125 38.091 16.651 74.36-1.439 108.83-18.099 34.452-48.271 57.205-90.54 68.249zM385.592 162.446c-8.379-12.941-20.278-21.993-35.71-27.129-15.422-5.148-29.618-4.67-42.559 1.425-12.945 6.094-21.132 15.708-24.56 28.854-3.429 13.127-0.954 26.162 7.423 39.118 7.993 12.577 19.422 21.329 34.272 26.273 14.858 4.952 28.756 4.766 41.705-0.568 13.329-5.704 21.905-15.234 25.712-28.557 3.806-13.327 1.715-26.459-6.283-39.414zM439.284 231.582c-2.663-4.958-6.857-8.483-12.565-10.578-5.712-2.097-11.238-2.185-16.567-0.288-11.421 5.34-13.896 13.898-7.425 25.704 2.665 4.958 6.759 8.475 12.277 10.578 5.518 2.095 10.944 2.185 16.279 0.28 4.95-1.895 8.281-5.428 10-10.57 1.713-5.13 1.050-10.19-1.999-15.126zM816.293 482.066c4.206-8.189 10.668-13.804 19.432-16.853 8.766-2.665 17.227-1.907 25.416 2.287 8.189 4.184 13.81 10.658 16.859 19.422 7.229 21.321 8.475 43.701 3.697 67.117-4.752 23.417-15.13 44.082-31.112 61.981-15.994 17.901-35.242 30.374-57.701 37.423-22.471 7.045-45.13 8.089-67.971 3.139-9.154-1.907-16.194-6.765-21.15-14.57-4.944-7.803-6.463-16.279-4.552-25.416 1.521-9.142 6.273-16.186 14.262-21.136 8.005-4.95 16.571-6.473 25.718-4.574 24 4.952 44.356-1.715 61.124-19.992 16.763-18.275 21.321-39.412 13.709-63.407-2.689-8.758-1.915-17.233 2.269-25.42zM1018.242 582.038c-9.722 48.169-31.134 90.538-64.268 127.095-33.137 36.935-72.741 62.547-118.838 76.837-46.074 14.284-92.523 16.471-139.378 6.571-10.668-2.287-18.954-7.901-24.856-16.855-5.902-8.956-7.711-18.758-5.416-29.422 2.281-10.664 7.983-18.946 17.137-24.848 9.128-5.902 19.036-7.713 29.69-5.426 33.139 6.851 66.086 5.23 98.832-4.858 32.755-10.092 60.938-28.271 84.554-54.55 23.603-25.898 38.852-55.978 45.706-90.258 6.861-34.27 4.958-67.023-5.71-98.249-3.041-10.288-2.095-20.188 2.863-29.71 4.944-9.52 12.557-15.99 22.841-19.422 10.286-3.419 20.186-2.663 29.704 2.287 9.524 4.95 16 12.565 19.432 22.849 14.848 43.796 17.415 89.782 7.707 137.959z"  horiz-adv-x="1025" />

    
    <glyph glyph-name="dongtai" unicode="&#58973;" d="M10.24 384.02048C10.1888 659.56864 233.94304 883.41504 509.66528 883.64032c275.5072 0.22528 499.48672-223.4368 499.8656-499.17952 0.37888-275.84512-224.06144-500.3776-499.90656-500.11136C233.86112-115.36384 10.2912 108.32896 10.24 384.02048zM509.89056-70.3488c250.4192 0.02048 454.27712 203.8784 454.3488 454.36928 0.07168 250.3168-203.9808 454.35904-454.36928 454.33856C259.46112 838.33856 55.41888 634.28608 55.53152 383.98976 55.63392 133.4784 259.49184-70.36928 509.89056-70.3488zM289.44384 162.16064c10.73152 33.69984 20.9408 65.78176 31.1808 97.86368 26.55232 83.16928 53.15584 166.31808 79.616 249.51808 1.64864 5.19168 3.47136 8.92928 9.46176 10.77248 112.88576 34.82624 225.6896 69.89824 338.51392 104.89856 1.47456 0.4608 3.04128 0.6144 5.81632 1.14688-0.96256-3.87072-1.54624-6.89152-2.46784-9.79968-35.0208-110.44864-70.11328-220.86656-104.98048-331.35616-1.85344-5.888-4.72064-8.89856-10.67008-10.82368-112.70144-36.48512-225.31072-73.22624-337.95072-109.88544C295.82336 163.79904 293.61152 163.29728 289.44384 162.16064zM685.09696 557.63968c-4.29056-1.1264-7.04512-1.73056-9.728-2.56-75.63264-23.49056-151.22432-47.11424-226.92864-70.3488-7.0656-2.17088-10.48576-5.66272-12.67712-12.61568-19.77344-62.85312-39.92576-125.58336-59.93472-188.3648-5.26336-16.50688-10.42432-33.05472-15.98464-50.66752 3.328 0.73728 5.2224 1.00352 7.00416 1.57696 77.78304 25.27232 155.5968 50.4832 233.24672 76.15488 3.98336 1.32096 8.35584 6.07232 9.6768 10.14784 21.06368 65.16736 41.66656 130.47808 62.3616 195.75808C676.32128 529.90976 680.48896 543.09888 685.09696 557.63968zM520.84736 338.81088c-31.70304 0.16384-56.48384 25.50784-56.15616 57.4464 0.31744 30.93504 25.96864 56.12544 56.95488 55.92064 30.7712-0.2048 56.36096-25.93792 56.41216-56.71936C578.0992 364.11392 552.37632 338.64704 520.84736 338.81088z"  horiz-adv-x="1024" />

    
    <glyph glyph-name="iconfonticonfontwode1-copy" unicode="&#58900;" d="M961.466 27.432c-8.719-46.716-9-50.766-24.328-50.766h-850.303c-15.272 0-15.553 4.050-24.244 50.766 0 0-0.422-38.503-0.028 35.747 0.084 17.212 4.134 21.178 13.078 36.197 19.884 33.441 81.647 54.506 81.647 54.506 58.556 55.125 190.659 54.9 204.159 54.534 13.5-0.338 22.753 15.666 27.225 27.281 4.022 21.825-8.297 75.319-40.809 109.097-44.662 46.434-64.912 84.656-74.081 126.141l-2.194 0.225-32.597 78.188v40.894l27.731 6.947c5.428 149.625 69.159 184.697 100.969 197.016 33.244 12.881 37.013 47.081 75.459 55.125 24.497 5.175 41.85 27.338 68.034 27.338 0.113 0 0.309-17.353 0.394-17.353l-0.394-23.569c-24.412-3.488-46.266-20.025-68.063-27.253-8.072-2.672-19.547-24.019-27.225-27.281-8.522-3.628-9.394-11.053-54.478-40.922-55.153-36.534-57.628-98.606-54.422-177.244 5.794-144.056 7.734-96.778 68.063-190.912 5.287-8.241 58.641-82.884 54.422-122.737-3.572-38.25 11.138-31.050-13.584-54.534-40.050-39.544-165.009-20.812-217.772-54.534 0 0-58.613-23.231-81.647-54.563-23.709-32.147-13.613-68.147-13.613-68.147h408.347l0.422-22.753 0.45 22.753h409.106c0 0 10.097 36-13.641 68.147-23.091 31.331-81.816 54.563-81.816 54.563-52.875 33.722-178.059 14.991-218.194 54.534-24.778 23.484-10.013 16.284-13.612 54.534-4.219 39.853 49.247 114.497 54.534 122.737 60.384 94.134 62.353 46.856 68.175 190.912 3.178 78.638 0.731 140.709-54.534 177.244-45.141 29.869-46.041 37.294-54.534 40.922-7.65 3.263-19.209 24.609-27.281 27.281-21.825 7.228-43.734 23.766-68.175 27.253l-0.394 23.569c0-0.028 0.197 17.353 0.309 17.353 26.213 0 43.594-22.162 68.175-27.253 38.531-8.044 42.3-42.272 75.6-55.125 31.894-12.319 95.653-47.419 101.137-197.016l27.816-6.947v-40.894l-32.653-78.188-2.222-0.225c-9.169-41.513-29.475-79.706-74.222-126.141-32.569-33.778-44.916-87.272-40.894-109.097 4.472-11.616 13.725-27.591 27.253-27.281 13.5 0.366 145.884 0.591 204.525-54.534 0 0 61.931-21.066 81.844-54.506 8.916-15.019 13.022-18.984 13.078-36.197 0.422-74.334 0-35.831 0-35.831z"  horiz-adv-x="1024" />

    
    <glyph glyph-name="jiantou3" unicode="&#58986;" d="M510.976-46.08c-238.08 0-432.128 193.536-432.128 432.128 0 238.08 193.536 432.128 432.128 432.128 238.08 0 432.128-193.536 432.128-432.128C942.592 147.968 749.056-46.08 510.976-46.08zM510.976 781.824c-218.624 0-396.288-177.664-396.288-396.288 0-218.112 177.664-395.776 396.288-395.776 218.624 0 396.288 177.664 396.288 395.776C907.264 604.16 729.6 781.824 510.976 781.824zM414.208 107.008c-6.656 0-12.8 2.56-17.92 7.68-9.728 9.728-9.728 25.6 0 35.84l234.496 235.52-233.984 235.52c-9.728 9.728-9.728 25.6 0 35.84 9.728 9.728 25.6 9.728 35.328 0l269.312-271.36-269.824-271.36C427.008 109.568 420.352 107.008 414.208 107.008z"  horiz-adv-x="1024" />

    
    <glyph glyph-name="v" unicode="&#59242;" d="M509.892267 833.9456c-247.424 0-448-200.576-448-448s200.576-448 448-448 448 200.576 448 448-200.578133 448-448 448zM741.162667 544.654933a428.558933 428.558933 0 0 0-24.416-3.131733c-10.436267-2.9248-17.527467-10.877867-21.2864-23.812267C632.430933 395.415467 574.208 288 520.7872 198.4h-54.468267c-36.309333 74.666667-88.2752 185.540267-155.889066 332.4608-2.504533 5.009067-8.765867 10.026667-18.781867 15.035733a580.864 580.864 0 0 0-23.790933 10.647467c2.084267 4.586667 4.7936 10.222933 8.138666 16.906667 83.470933 0 157.143467-1.4656 221.000534-4.381867 3.3344-2.504533 5.006933-4.802133 5.006933-6.8864 0-3.7568-8.450133-7.5136-25.3568-11.268267-16.9024-3.7568-25.352533-7.306667-25.352533-10.6432 0-0.840533 0.4096-1.879467 1.252266-3.131733a17697.117867 17697.117867 0 0 1 43.2-104.552533c19.611733-44.6656 37.973333-74.0928 55.093334-88.277334 45.0752 75.1296 78.0416 141.698133 98.916266 199.716267-4.177067 3.336533-20.874667 5.009067-50.0864 5.009067 0-2.504533-0.625067 1.457067-1.8752 11.895466-0.4224 5.418667 0.625067 9.595733 3.131734 12.520534 62.606933 0 112.893867-4.177067 150.882133-12.520534 0.829867-9.604267-2.724267-15.022933-10.645333-16.2752z"  horiz-adv-x="1024" />

    
    <glyph glyph-name="faxian" unicode="&#58888;" d="M512 838.57c-250.021 0-454.563-204.542-454.563-454.563 0-249.992 204.542-454.563 454.563-454.563s454.563 204.571 454.563 454.563c0 250.021-204.542 454.563-454.563 454.563zM512-25.077c-225.019 0-409.112 184.094-409.112 409.084 0 225.019 184.094 409.113 409.112 409.113 225.019 0 409.113-184.094 409.113-409.113 0-224.99-184.094-409.084-409.113-409.084zM512 338.557c25.002 0 45.451 20.477 45.451 45.45 0 25.003-20.449 45.48-45.451 45.48s-45.45-20.477-45.45-45.48c0-24.973 20.448-45.45 45.45-45.45zM737.019 631.766c-2.291 0-6.845 0-9.107-2.292l-293.18-115.902c-22.74-9.079-40.925-27.264-50.005-50.005l-115.93-293.179c-6.817-15.924 4.554-31.847 20.477-31.847 2.262 0 6.816 0 9.079 2.291l293.209 115.903c22.711 9.107 40.897 27.293 49.976 50.004l115.932 293.209c6.815 15.896-4.555 31.819-20.45 31.819zM598.376 322.662c-4.553-11.37-13.661-20.449-25.002-25.002l-243.204-97.746 97.746 243.204c4.525 11.37 13.633 20.448 25.002 25.003l243.176 97.717-97.718-243.176zM598.376 322.662z"  horiz-adv-x="1024" />

    
    <glyph glyph-name="wode" unicode="&#58881;" d="M943.516957 76.555736c-23.588823 55.770847-57.353962 105.852871-100.35894 148.85585-43.001979 43.003978-93.085003 76.768118-148.85585 100.358941a466.284536 466.284536 0 0 1-57.50088 20.010822c29.194692 13.985188 56.120651 32.971582 79.687487 56.539417 54.621489 54.620489 84.702686 127.242923 84.702685 204.488774s-30.080197 149.868285-84.702685 204.488774C661.868285 865.919803 589.24685 896.000999 512 896.000999S362.132715 865.920802 307.511226 811.300313c-54.620489-54.621489-84.701686-127.242923-84.701686-204.489774s30.081197-149.868285 84.701686-204.489773c23.567835-23.567835 50.492795-42.554229 79.687487-56.539417a466.255553 466.255553 0 0 1-57.498881-20.010822c-55.769847-23.589823-105.852871-57.353962-148.85685-100.358941-43.001979-43.001979-76.768118-93.085003-100.35794-148.85585-24.426356-57.75174-36.812437-119.087478-36.812437-182.301167 0-12.284138 9.959437-22.243575 22.243575-22.243575s22.243575 9.959437 22.243575 22.243575c0 229.488809 183.337589 416.95809 411.235286 423.648352 4.187661-0.177901 8.388314-0.284841 12.604959-0.28484s8.417298 0.10694 12.604959 0.28484c227.898697-6.690263 411.235287-194.159544 411.235286-423.648352 0-12.284138 9.959437-22.243575 22.243575-22.243575s22.243575 9.959437 22.243575 22.243575c0.000999 63.213689-12.384082 124.549427-36.810438 182.301167zM267.29669 606.810539c0 134.930629 109.773681 244.70431 244.704309 244.70431 134.929629 0 244.70331-109.773681 244.703311-244.70431 0-130.763956-103.099409-237.899111-232.279251-244.390485-4.133691 0.10694-8.275377 0.163908-12.426058 0.163909s-8.292368-0.055969-12.426059-0.163909C370.396099 368.910429 267.29669 476.045584 267.29669 606.810539z"  horiz-adv-x="1024" />

    
    <glyph glyph-name="pinglun" unicode="&#58947;" d="M105.96131-78.421838c-9.549493 0-18.228153 5.206582-22.651906 13.58746-3.13541 5.931083-3.753487 12.723789-1.744737 19.134802 2.026146 6.455015 6.462179 11.741415 12.490476 14.879896l106.499569 55.41203c43.343157 22.51683 90.672092 34.420951 136.863111 34.420951 19.760043 0 39.294958-2.173502 58.06444-6.461155 38.046524-8.667404 77.474512-13.06148 117.196189-13.061481 247.657496 0 449.140347 170.153308 449.140347 379.301746 0 209.150484-201.483874 379.306862-449.140347 379.306862S63.538105 627.942895 63.538105 418.792411c0-82.483596 30.81482-160.847361 89.113597-226.619344 4.425799-5.018294 6.635117-11.507078 6.202259-18.247596-0.433882-6.752798-3.466961-12.921287-8.541537-17.3696-4.631484-4.041036-10.614755-6.27696-16.826224-6.27696a25.621541 25.621541 0 0 0-19.174711 8.606005c-66.506716 75.175143-101.665471 165.05315-101.665471 259.906471 0 236.984413 224.313835 429.786557 500.032434 429.786557 275.719622 0 500.034481-192.802144 500.034481-429.786557 0-236.986459-224.314859-429.789627-500.034481-429.789626-43.591821 0-86.819344 4.834098-128.48121 14.366196-15.20633 3.465938-31.036877 5.222955-47.060828 5.222954-38.011732 0-77.07133-9.911744-112.954585-28.66383l-106.444311-55.387471c-3.799536-2.00261-7.634888-2.961448-11.776208-2.961448zM310.370817 362.971058c-30.987758 0-56.19793 25.041326-56.19793 55.820329s25.210172 55.821353 56.19793 55.821354c30.985712 0 56.193837-25.041326 56.193836-55.821354s-25.208125-55.82033-56.193836-55.820329zM513.765203 362.971058c-30.985712 0-56.193837 25.041326-56.193836 55.820329s25.208125 55.821353 56.193836 55.821354 56.193837-25.041326 56.193837-55.821354-25.208125-55.82033-56.193837-55.820329zM717.158566 362.971058c-30.985712 0-56.193837 25.041326-56.193836 55.820329s25.208125 55.821353 56.193836 55.821354c30.984688 0 56.192813-25.041326 56.192814-55.821354s-25.207102-55.82033-56.192814-55.820329z"  horiz-adv-x="1024" />

    
    <glyph glyph-name="fengshan" unicode="&#58897;" d="M448 390.4v6.4c-76.8 25.6-185.6 96-185.6 96-19.2 19.2-38.4 12.8-38.4 12.8s-70.4-12.8-70.4-128c6.4-121.6 115.2-147.2 115.2-147.2 64-12.8 153.6 57.6 198.4 108.8-6.4 12.8-19.2 32-19.2 51.2zM512 448h19.2C563.2 524.8 640 627.2 640 627.2c19.2 19.2 12.8 38.4 12.8 38.4s-6.4 70.4-121.6 76.8c-121.6 0-153.6-108.8-153.6-108.8-19.2-64 44.8-147.2 89.6-204.8 12.8 12.8 25.6 19.2 44.8 19.2zM556.8 352c-12.8-12.8-25.6-25.6-44.8-25.6-19.2-83.2-83.2-204.8-83.2-204.8-12.8-19.2-6.4-38.4-6.4-38.4s19.2-70.4 128-51.2c121.6 19.2 134.4 134.4 134.4 134.4 6.4 64-70.4 140.8-128 185.6zM755.2 531.2c-64 12.8-147.2-51.2-198.4-102.4 12.8-12.8 19.2-25.6 19.2-38.4v-19.2c83.2-32 192-102.4 192-102.4 19.2-12.8 38.4-12.8 38.4-12.8s70.4 12.8 70.4 121.6c-12.8 128-121.6 153.6-121.6 153.6zM512 390.4m-38.4 0a38.4 38.4 0 1 1 76.8 0 38.4 38.4 0 1 1-76.8 0Z"  horiz-adv-x="1024" />

    
    <glyph glyph-name="zuji" unicode="&#59224;" d="M716.163401 596.366735c-37.72623 36.989449-82.71691 62.036915-131.513266 80.845283-40.495296 15.598256-82.099856 21.73707-125.21891 14.637372-53.56087-8.754385-95.303576-34.558074-121.431653-85.540212-32.317033-63.013149-40.121789-126.913505-15.647375-193.706747 7.014764-19.261693 13.553691-38.749536 19.276019-58.425667 12.492522-42.990117 5.349845-83.019809-19.572778-120.293737-16.225543-24.125467-35.678594-45.049009-57.078996-64.257489-14.907525-13.419637-27.486004-28.822442-37.614689-46.159296-12.993942-22.161742-21.474081-46.01808-24.838711-71.625294-4.391007-33.391505-0.932232-65.636906 13.33368-96.010681 18.73162-39.812751 49.735751-65.087391 91.385337-75.958996 55.901171-14.634302 109.193935-7.931646 158.718885 25.094538 28.598338 19.031449 54.210669 41.659819 77.883835 66.565045 62.984497 66.310242 118.645191 138.596592 169.123862 215.010959 30.469965 46.119387 54.578036 95.627964 69.429279 149.408845 2.297322 11.422144 4.978385 22.75526 6.826476 34.218336C803.307134 458.880431 779.19804 534.502759 716.163401 596.366735L716.163401 596.366735zM742.960721 342.509027c-15.820314-62.665225-47.130414-114.830305-74.869175-156.822698-45.954635-69.565379-75.040067-108.98518-132.369773-169.345919-12.800537-13.465686-105.984846-134.375453-225.972615-98.264001-54.019311 16.260335-82.708723 103.676267-61.963237 152.603607 34.757618 81.986269 73.199139 96.215342 101.044324 133.073808 20.123316 26.63359 39.943734 77.076446 36.824697 125.95262-3.683902 57.81987-59.597353 146.346089-26.758434 225.532593 18.771529 45.24753 43.961234 90.744747 110.442368 95.5461 96.687086 6.992251 187.485045-52.294017 221.816968-85.963861C748.544903 508.505665 767.547699 439.943127 742.960721 342.509027L742.960721 342.509027zM400.174634 870.531955c-39.562041 36.953633-95.520517 31.361265-126.246309-12.377912-35.302017-50.330292-23.240307-128.715547 25.573445-166.184927 40.599673-31.104415 93.652983-21.759583 121.232109 21.323655 12.797467 20.008706 18.249643 42.025139 18.315134 68.093864C437.988868 814.453752 426.610726 845.83139 400.174634 870.531955L400.174634 870.531955zM392.272663 742.540909c-15.449877-26.279526-46.825468-33.040511-71.704089-15.440667-29.913287 21.209044-38.866193 67.603701-18.98847 98.371448 17.308201 26.742061 50.497091 31.332612 74.889641 10.225899 16.302291-14.109346 23.790846-32.530904 25.168216-52.196803C402.186454 767.977231 399.435807 754.739742 392.272663 742.540909L392.272663 742.540909zM593.348238 837.961142C578.270844 874.324328 541.055245 887.732709 506.655783 869.400179c-42.878576-22.852474-61.96119-85.382623-39.131229-128.353296 16.452717-30.973432 50.474578-41.954531 81.612763-25.856901 27.52796 14.250562 41.963741 38.372959 48.111764 64.201208C601.628832 801.675728 600.773348 820.153568 593.348238 837.961142L593.348238 837.961142zM566.783209 785.317155c-3.405563-14.328333-11.405771-27.708062-26.675546-35.610032-17.269315-8.933463-36.141128-2.839675-45.26595 14.337543-12.663414 23.834848-2.078335 58.518788 21.702278 71.191412 19.082614 10.168594 39.721677 2.734274 48.083112-17.437138C568.743864 807.924036 569.224818 797.672554 566.783209 785.317155L566.783209 785.317155zM726.194872 783.87327c-11.06501 32.060183-42.361807 45.539172-72.907497 31.575136-38.074154-17.408485-57.760518-70.190619-40.378639-108.342544 12.530384-27.498284 41.215704-38.724976 68.837808-26.508747 24.430412 10.813277 38.095643 30.80561 44.732807 52.700269C731.419873 752.228549 731.652164 768.164496 726.194872 783.87327L726.194872 783.87327zM699.744453 739.344101c-3.444449-11.377118-10.556427-21.770839-23.251563-27.39186-14.353916-6.347568-29.263487-0.51063-35.774785 13.778818-9.032724 19.829628 1.197268 47.264467 20.986987 56.3064 15.878642 7.260357 32.143071 0.255827 37.890982-16.407692C702.435749 757.46583 702.309882 749.18319 699.744453 739.344101L699.744453 739.344101zM844.625168 692.260759c-6.119371 32.615838-34.481326 50.146097-66.042135 41.000809-39.33896-11.388375-65.955154-59.650565-54.594409-99.06525 8.18338-28.409027 34.337039-43.383066 62.818721-35.517935 25.189705 6.966669 41.290405 24.357757 50.847062 44.595684C845.142961 660.887214 847.648015 676.272623 844.625168 692.260759L844.625168 692.260759zM810.298362 654.847661c-4.716418-9.996678-12.666484-18.583241-25.110911-22.024619-14.063297-3.88447-26.975375 3.51301-31.024597 17.536398-5.605671 19.464307 7.540743 43.300178 26.966165 48.927339 15.591093 4.510734 29.598108-4.143367 32.609699-20.249183C815.230698 671.144836 813.998637 663.545764 810.298362 654.847661L810.298362 654.847661zM911.897318 565.532473c-2.058892 30.705326-26.273387 49.950645-56.335053 44.979424-37.479613-6.193049-67.260893-47.729048-61.113893-85.274152 4.438079-27.061332 26.889417-43.706431 53.980425-39.577391 23.956621 3.664459 40.690748 17.919115 51.708686 35.518958C908.955312 536.581094 912.94723 550.481685 911.897318 565.532473L911.897318 565.532473zM874.417705 535.853523c-5.031597-8.021697-12.655228-14.522762-23.583115-16.190751-12.358469-1.88493-22.594601 5.709025-24.619724 18.048051-2.805906 17.119913 10.777461 36.069497 27.870768 38.891775 13.715373 2.266623 24.75173-6.511297 25.696242-20.514219C880.257713 549.218926 878.437252 542.880567 874.417705 535.853523L874.417705 535.853523z"  horiz-adv-x="1024" />

    
    <glyph glyph-name="svgiconxiaolian" unicode="&#58880;" d="M637.521 470.063c0.652 30.836 26.205 55.296 57.041 54.621s55.296-26.205 54.644-57.065c-0.652-30.371-25.46-54.644-55.831-54.644-31.185 0.372-56.18 25.903-55.855 57.088zM296.692 470.063c0.605 30.906 26.159 55.459 57.065 54.854 30.906-0.605 55.459-26.159 54.854-57.065-0.605-30.534-25.553-54.924-56.064-54.877-31.162 0.372-56.18 25.903-55.855 57.088zM694.912 295.098c-0.186 18.176 14.406 33.094 32.582 33.28h57.693c18.385-0.047 33.257-15.011 33.187-33.373-0.070-18.316-14.895-33.14-33.187-33.187l-27.276 0c-15.453-108.102-106.519-180.899-232.006-180.899s-216.436 72.82-232.006 180.899h-28.742c-18.385 0.047-33.233 15.011-33.187 33.396 0.070 18.292 14.895 33.117 33.187 33.164h59.043c18.176-0.186 32.768-15.081 32.582-33.28 0-102.004 84.899-147.665 169.030-147.665 84.201 0 169.1 45.661 169.1 147.665zM513.547-128c-268.614 3.398-483.607 223.884-480.233 492.497 3.305 262.377 214.132 474.81 476.463 480.163 3.607 1.722 10.263 5.655 15.313 8.681 21.83 14.429 46.010 24.972 71.401 31.139 17.734 3.235 34.676-8.495 37.911-26.182 0.047-0.186 0.093-0.349 0.116-0.535 3.398-17.92-8.285-35.188-26.182-38.726-17.943-5.027-34.956-12.87-50.409-23.273-12.94-9.798-28.253-15.919-44.381-17.711-231.843 4.375-423.331-180.015-427.729-411.857-4.375-231.843 180.015-423.331 411.857-427.729 231.843-4.375 423.331 180.015 427.729 411.834 0.047 2.653 0.070 5.306 0.070 7.959 0.279 105.612-38.982 207.523-110.033 285.649-4.375 4.817-16.826 18.385-58.415 152.809-100.236-108.335-128.721-92.649-143.313-84.643-15.919 8.937-21.783 28.951-13.172 45.079 6.307 12.102 19.549 18.967 33.094 17.199 42.193 31.721 80.128 68.701 112.966 110.033 7.68 9.146 19.805 13.289 31.511 10.822 11.729-2.607 21.108-11.427 24.483-22.97 17.245-62.883 38.121-124.719 62.441-185.204 81.408-90.112 126.231-207.36 125.673-328.774 2.164-265.891-211.247-483.398-477.161-486.26z"  horiz-adv-x="1024" />

    
    <glyph glyph-name="huangguan" unicode="&#59063;" d="M508.657783-127.98570400000006c-68.309691 0-134.595467 13.387249-197.017219 39.791072-60.275299 25.495-114.397161 61.982658-160.863476 108.449995-46.467337 46.467337-82.954995 100.589198-108.448974 160.862455C15.925313 243.54059099999995 2.538063 309.82738800000004 2.538063 378.135037c0 68.306628 13.387249 134.592403 39.790051 197.017219 25.492958 60.273257 61.980616 114.39614 108.448974 160.863476 46.468358 46.468358 100.59022 82.956016 160.863476 108.449995 62.422773 26.40178 128.708549 39.789029 197.017219 39.789029 68.306628 0 134.592403-13.387249 197.017219-39.789029 60.273257-25.493979 114.39614-61.981637 160.863476-108.449995 46.466316-46.464273 82.953974-100.586135 108.449995-160.863476 26.402801-62.422773 39.79005-128.708549 39.790051-197.017219s-13.386228-134.594446-39.790051-197.01824c-25.496022-60.27632-61.98368-114.399203-108.451016-160.863477-46.465294-46.466316-100.587156-82.953974-160.862455-108.448974-62.420731-26.402801-128.707528-39.79005-197.017219-39.79005z m0 930.547605c-234.030768 0-424.427885-190.397117-424.427885-424.427885 0-234.031789 190.398138-424.429927 424.427885-424.429928 234.030768 0 424.427885 190.398138 424.427885 424.429928 0 234.030768-190.397117 424.427885-424.427885 424.427885zM508.657783 822.984859c-245.290966 0-444.850844-199.558856-444.850844-444.850843S263.366816-66.717849 508.657783-66.717849s444.850844 199.559877 444.850843 444.851865S753.948749 822.984859 508.657783 822.984859zM284.423908 116.99176999999997l18.285696-28.823943 42.224467-20.881454 16.236252 109.608998zM363.141139 178.43322l-1.970816-1.537849-16.236252-109.608998 31.458505-15.557189 22.311061 150.621363zM398.703637 202.350547l-22.311061-150.621363 31.458504-15.55821 28.352172 191.397842zM436.203252 227.56881599999997l-28.352172-191.397842 31.459525-15.557188 34.391242 232.174321zM473.701847 252.78810699999997l-34.391242-232.174321 31.458505-15.557189 40.431331 272.9508zM511.200441 278.00739699999997l-40.431331-272.9508 31.458504-15.557189 46.471422 313.726259zM548.699036 303.22566700000004l-46.471422-313.726259 31.458505-15.557189 52.511511 354.502738zM586.19763 328.44495700000004l-52.511511-354.502738 31.458504-15.55821 58.551601 395.279218zM623.696224 353.663227l-58.551601-395.279218 31.458504-15.557188 64.591692 436.055696zM661.194819 378.882517l-64.591692-436.055696 1.163088-0.574907a440.806077 440.806077 0 0 1 33.745876 8.311123l67.181322 453.53775-37.498594-25.21827zM698.693413 404.101808l-67.181322-453.537749a441.143055 441.143055 0 0 1 35.522673 11.877992l69.157244 466.879047-37.498595-25.21929zM736.192008 429.320077l-69.157244-466.879047a442.304101 442.304101 0 0 1 36.083283 15.663388l70.572555 476.43495-37.498594-25.219291zM773.690602 454.539368l-70.572555-476.43495a444.225901 444.225901 0 0 1 36.742945 20.119678l71.328205 481.534562-37.498595-25.21929zM811.189197 479.757637L739.860992-1.7759039999999686a446.53778 446.53778 0 0 1 37.561906 25.650215l71.263872 481.103638-37.497573-25.220312zM849.934613 505.81529l-1.246822-0.838363-71.263872-481.103637a448.430988 448.430988 0 0 1 38.658618 33.052516l64.124006 432.90035-30.27193 15.989134zM880.206543 489.826156l-64.124006-432.90035a448.763882 448.763882 0 0 1 40.290413 44.064576l55.147095 372.29624-31.313502 16.539534zM911.520045 473.286622l-55.147095-372.29624a446.486723 446.486723 0 0 1 43.464141 65.491323l42.996455 290.265384-31.313501 16.539533zM942.832525 456.747089L899.837091 166.48170500000003c34.21254 62.977257 53.670514 135.082554 53.670514 211.652311 0 26.062759-2.260822 51.605753-6.582319 76.451303l-4.092761 2.16177zM167.379932 506.049133l2.189341 6.176924c5.629589 16.809116 20.327992 28.067272 38.2328 29.319199 16.34143 1.173299 32.68184-8.365244 40.343512-23.37714 7.81893-15.324367 5.63061-33.384389-5.707195-46.832907-1.328513-1.484749-2.658048-2.970519-4.142798-4.690133 31.664776-19.389557 63.173317-38.546292 94.525622-57.85722 11.88412-7.349202 23.845847-14.698403 35.729967-21.812741 6.801866-3.988604 12.040355-2.815305 15.714445 3.831347A264110.239748 264110.239748 0 0 1 492.708473 588.614049c-15.714446 7.975165-25.879973 20.171756-26.817387 38.2328-0.625964 12.666319 3.830326 23.534396 12.821534 32.368347 17.826179 17.357473 47.067772 15.715467 62.70461-3.517855 17.983436-22.048626 11.49302-47.84895-17.04398-67.239528 9.3047-17.04398 18.687007-34.166589 28.146921-51.21159 26.192445-47.693735 52.227632-95.229193 78.419056-142.921907 6.020688-11.024313 9.852035-12.040355 20.641484-5.63061 40.499748 24.706674 80.921889 49.569584 121.421637 74.354887 1.875849 1.173299 3.67409 2.345577 5.863432 3.674091-8.365244 8.366265-13.682361 17.826179-14.307304 29.476456-1.172278 21.812741 13.838597 40.890848 34.87016 44.487331 21.892391 3.831347 42.220382-8.678736 48.709777-29.867556 0.468707-1.642006 1.173299-3.361619 1.798242-5.003625v-14.698403c-6.880495-22.048626-21.031563-34.871181-45.348159-35.027417-0.859807-2.501812-1.798242-5.003625-2.501812-7.505437-23.690632-81.23436-47.380243-162.624956-71.070875-243.858296-3.048127-10.634235-6.801866-13.36989-17.513708-13.36989H304.359779c-11.49302 0-15.011896 2.658048-18.138651 13.36989-19.312971 65.909993-38.389035 132.054851-57.700985 197.963823-5.159861 17.826179-10.476978 35.652359-15.715466 53.557167-18.138651 0-31.821012 7.192966-40.343513 22.829804-2.033106 3.830326-3.361619 8.13038-5.003625 12.196591-0.077607 5.081232-0.077607 9.928621-0.077607 14.776011m0 0zM508.500526 148.82197199999996h191.162978c17.04398 0 30.648734-12.040355 32.524583-28.22555 1.87687-16.340409-8.833951-31.196069-25.331617-34.870159-2.345577-0.625964-4.84841-0.703571-7.192966-0.703571H317.181313c-14.542168 0-26.817387 8.678736-31.038813 21.812741-4.378682 13.135026-0.313492 27.990686 11.336784 35.496123 6.019667 3.830326 13.994832 6.489395 21.031563 6.489395 63.408181 0.313492 126.737734 0.001021 189.989679 0.001021m0 0z"  horiz-adv-x="1024" />

    
    <glyph glyph-name="jia" unicode="&#59018;" d="M60.509091 449.163636h902.981818c32.581818 0 60.509091-27.927273 60.509091-60.509091 0-32.581818-27.927273-60.509091-60.509091-60.50909H60.509091c-32.581818 0-60.509091 27.927273-60.509091 60.50909 0 34.909091 27.927273 60.509091 60.509091 60.509091zM572.509091 835.490909v-902.981818c0-32.581818-27.927273-60.509091-60.509091-60.509091-32.581818 0-60.509091 27.927273-60.509091 60.509091V835.490909C451.490909 868.072727 479.418182 896 512 896c32.581818 0 60.509091-27.927273 60.509091-60.509091z"  horiz-adv-x="1024" />

    
    <glyph glyph-name="lingdang" unicode="&#58929;" d="M942.933333 142.933333c-12.8 10.666667-29.866667 17.066667-49.066666 17.066667-74.666667 0-104.533333 168.533333-104.533334 234.666667 0 149.333333-14.933333 311.466667-196.266666 354.133333v49.066667c0 21.333333-14.933333 34.133333-38.4 34.133333h-78.933334c-21.333333 0-38.4-14.933333-38.4-34.133333v-49.066667c-181.333333-42.666667-196.266667-204.8-196.266666-354.133333 0-66.133333-32-234.666667-104.533334-234.666667-19.2 0-36.266667-6.4-49.066666-17.066667-12.8-10.666667-19.2-25.6-19.2-40.533333 0-29.866667 23.466667-59.733333 68.266666-59.733333h256c10.666667-59.733333 61.866667-106.666667 123.733334-106.666667s115.2 46.933333 123.733333 106.666667h256c44.8 0 68.266667 32 68.266667 59.733333-2.133333 14.933333-8.533333 29.866667-21.333334 40.533333z m-430.933333-166.4c-38.4 0-72.533333 27.733333-81.066667 64h162.133334c-8.533333-36.266667-42.666667-64-81.066667-64z m381.866667 106.666667H128c-17.066667 0-25.6 8.533333-25.6 17.066667 0 2.133333 0 6.4 4.266667 8.533333 4.266667 4.266667 12.8 6.4 21.333333 6.4 110.933333 0 147.2 189.866667 147.2 277.333333 0 142.933333 12.8 285.866667 179.2 315.733334 10.666667 2.133333 17.066667 10.666667 17.066667 21.333333v57.6h68.266666v-57.6c0-10.666667 6.4-19.2 17.066667-21.333333 166.4-29.866667 179.2-172.8 179.2-315.733334 0-87.466667 36.266667-277.333333 147.2-277.333333 8.533333 0 17.066667-2.133333 21.333333-6.4 4.266667-2.133333 4.266667-6.4 4.266667-8.533333 10.666667-8.533333 2.133333-17.066667-14.933333-17.066667z"  horiz-adv-x="1024" />

    
    <glyph glyph-name="shiwu" unicode="&#58931;" d="M677.376 580.608c-38.912 0-120.32-43.008-120.32-92.16-2.048-10.752 2.048-25.6 19.456-38.912 17.408-14.848 49.664-25.6 77.312-25.6 6.656 0 12.8 0 19.456 2.048 38.912 8.704 73.216 47.104 73.216 83.968-0.512 34.304-24.064 70.656-69.12 70.656zM512 896c-282.624 0-512-229.376-512-512s229.376-512 512-512 512 229.376 512 512-229.376 512-512 512z m350.208-519.68c0-98.816-92.16-258.048-344.064-258.048-225.792 0-344.064 6.656-344.064 133.12v32.256c62.464-57.856 188.928-57.856 344.064-57.856 182.784 0 290.304 71.168 344.064 154.624v-4.096z m-344.064-107.008c-221.184 0-344.064 0-344.064 129.024 0 83.968 98.816 129.024 193.536 129.024 55.808 0 83.968 25.6 118.272 60.416 40.96 43.008 90.112 90.112 204.288 90.112 98.816 0 172.032-68.608 172.032-161.28 0-101.376-92.672-247.296-344.064-247.296z"  horiz-adv-x="1024" />

    
    <glyph glyph-name="dongtai2" unicode="&#58886;" d="M512-123.504c22.61 0 45.521 1.584 68.54 4.806 267.878 37.6 455.229 286.174 417.6 554.107-1.584 11.196-11.879 18.979-23.13 17.422-11.196-1.584-19.006-11.932-17.422-23.127 34.487-245.541-137.217-473.362-382.758-507.85-245.541-34.325-473.308 137.271-507.766 382.813-16.711 118.893 13.926 237.241 86.208 333.141 72.279 95.901 177.574 157.941 296.496 174.625 128.643 18.049 256.329-20.178 354.467-104.228l-110.701-15.538c-11.196-1.584-19.006-11.934-17.422-23.13 1.446-10.241 10.212-17.641 20.261-17.641 0.955 0 1.911 0.054 2.868 0.19l146.091 20.507c11.196 1.584 19.006 11.934 17.422 23.127-0.164 1.392-0.848 2.512-1.284 3.769l-20.178 143.769c-1.584 11.196-11.851 19.060-23.127 17.422-11.196-1.584-19.006-11.932-17.422-23.127l11.55-82.331c-104.311 80.828-235.875 116.355-368.203 97.758-129.761-18.187-244.668-85.878-323.53-190.519s-112.285-233.745-94.070-363.506c34.378-244.886 244.967-422.461 485.513-422.461zM801.261 447.999c-2.32 7.427-8.684 12.915-16.384 14.118l-177.685 27.879-77.77 162.173c-3.386 7.017-10.431 11.523-18.241 11.633-0.054 0-0.138 0-0.219 0-7.7 0-14.772-4.315-18.269-11.225l-81.457-160.454-178.367-23.866c-7.729-1.038-14.199-6.364-16.684-13.737-2.486-7.399-0.575-15.536 4.942-21.053l127.439-126.976-32.386-177.056c-1.394-7.675 1.665-15.456 7.946-20.126 6.254-4.615 14.581-5.353 21.546-1.774l160.153 81.947 158.27-85.47c3.058-1.665 6.389-2.458 9.722-2.458 0.192 0 0.356 0 0.546 0 11.305 0 20.48 9.175 20.48 20.48 0 2.759-0.546 5.38-1.53 7.781l-27.634 173.070 130.17 124.219c5.626 5.324 7.727 13.435 5.407 20.889zM629.609 325.036c-4.889-4.642-7.154-11.386-6.091-18.051l23.513-147.292-131.262 70.889c-3.033 1.638-6.389 2.458-9.722 2.458-3.194 0-6.389-0.738-9.339-2.268l-132.794-67.965 26.842 146.827c1.201 6.637-0.928 13.435-5.68 18.187l-105.65 105.266 147.921 19.796c6.689 0.902 12.507 5.024 15.536 11.031l67.556 133.065 64.47-134.484c2.921-6.091 8.629-10.322 15.292-11.388l147.347-23.127-107.945-102.946z"  horiz-adv-x="1024" />

    
    <glyph glyph-name="you" unicode="&#58885;" d="M774.656 406.43l-479.122 479.157c-13.943 13.907-36.48 13.907-50.422 0-13.943-13.943-13.943-36.515 0-50.458l455.73-455.765-448.205-448.241c-13.551-13.516-13.551-35.446 0-48.961 13.515-13.586 35.446-13.586 48.995 0l465.5 465.464c1.819 1.819 2.71 4.030 4.030 6.133 1.105 0.82 2.461 1.248 3.495 2.282 13.907 13.907 13.907 36.48 0 50.387z"  horiz-adv-x="1024" />

    
    <glyph glyph-name="bianji" unicode="&#59064;" d="M147.309714 15.652571V748.982857h585.728v73.142857H74.166857v-879.689143h874.057143V531.675429h-73.142857v-516.022858h-727.771429z m443.904 369.517715L999.131429 827.465143l-53.76 49.590857-407.990858-442.221714 53.76-49.664z"  horiz-adv-x="1024" />

    
    <glyph glyph-name="xing" unicode="&#58898;" d="M277.668-61.04c-22.765 0-41.736 8.853-55.646 24.03-16.441 18.97-22.765 48.058-20.236 87.263l5.059 192.234c-3.793 10.117-6.324 18.97-10.117 29.088-34.147 44.265-69.559 87.265-103.705 131.528-1.266 1.266-2.531 2.53-2.531 3.795-22.764 36.676-29.088 69.557-18.97 97.381 8.853 27.823 32.883 48.06 69.559 59.441l178.321 54.382c10.117 3.793 18.97 10.117 25.294 18.97l87.263 142.91c27.823 43 59.442 51.853 80.941 51.853 29.088 0 58.176-16.441 80.941-46.793l1.264-2.529c35.412-53.117 69.559-106.235 103.704-158.088 6.324-8.853 15.177-15.175 25.294-18.97l155.558-41.734c1.264 0 2.529-1.264 3.793-1.264 39.207-13.913 63.235-35.412 72.088-65.764 8.853-29.089 1.265-60.706-22.764-93.589L818.956 248.811c-6.322-8.853-8.853-18.97-8.853-29.089L820.22 46.46c-3.793-97.382-68.293-104.971-88.528-104.971-12.646 0-26.559 2.531-41.736 7.588h-1.264l-174.528 64.499c-10.117 3.795-21.499 3.795-32.881 0l-150.5-60.704c-20.233-10.118-37.939-13.912-53.115-13.912z m235.233 854.934c-17.706 0-34.147-11.382-49.322-34.147l-86-141.645c-11.382-17.706-27.823-30.354-46.794-36.676l-177.057-54.382c-24.028-7.588-39.205-20.235-45.529-35.412-6.322-17.706-1.264-39.205 15.177-65.764v-1.265c18.97-25.294 39.205-49.324 59.44-74.617 11.383-13.912 29.088-37.942 44.265-55.646 12.648-15.177 18.97-35.412 17.706-54.382l-5.058-193.498c-2.531-29.088 1.264-49.324 10.117-60.706 6.322-7.588 15.175-11.382 26.557-11.382 11.383 0 25.294 3.793 44.265 10.117l149.235 60.706c18.97 7.587 41.734 8.851 60.704 1.264L703.87-18.04c50.587-16.441 77.146 5.058 79.676 63.235v1.264l-8.853 170.733c-1.266 20.235 5.058 39.205 16.44 54.382l113.824 151.764c16.44 22.764 21.499 42.999 16.44 60.704-5.058 16.441-21.499 30.352-48.058 40.471h-1.264l-155.558 42.999c-20.235 5.06-36.676 17.706-48.058 35.412-26.559 39.205-74.617 113.822-102.44 155.558l-1.265 2.529c-16.442 21.501-34.147 32.883-51.853 32.883z m360.437-268.115zM563.489 762.276z m32.881 18.97z"  horiz-adv-x="1024" />

    
    <glyph glyph-name="hot" unicode="&#58911;" d="M511.68-127.36c-282.593 0-511.68 229.087-511.68 511.68 0 282.593 229.087 511.68 511.68 511.68 282.593 0 511.68-229.087 511.68-511.68 0-282.593-229.087-511.68-511.68-511.68zM502.976 648.896s-177.088-78.016-177.088-233.984c0-77.952 17.856-83.008 17.856-83.008s-56.704 15.872-96.576 63.552c0-224.192 126.336-292.416 255.808-292.416 182.72 0 255.872 116.992 255.872 203.392 0 127.168-118.080 144.064-118.080 283.904 0 0-68.864-27.968-68.864-116.928 0 0-68.928 9.728-68.928 175.36z"  horiz-adv-x="1024" />

    
    <glyph glyph-name="qq" unicode="&#58899;" d="M199.605 428.46l-1.678 5.17-1.343 6.78-0.94 3.727v15.275l1.612 5.976 1.679 6.378 2.148 6.614 2.922 7.419 3.86 7.722 5.439 7.721v5.406l0.536 5.069 0.806 6.882 2.35 7.687 2.149 8.359 1.712 3.862 1.98 3.557 2.552 3.996 2.753 2.921v19.135l1.612 9.803 1.611 11.415 2.888 13.696 3.961 14.169 2.954 7.855 2.921 8.494 3.19 7.955 3.827 8.493 3.894 9.3 4.5 8.728 5.036 9.334 6.379 9.266 2.921 5.303 3.156 4.399 6.815 9.836 6.982 9.802 7.99 10.072 8.528 9.87 9.266 9.668 9.669 9.937 11.684 10.743 7.454 6.512 9.030 7.051 9.166 6.244 9.937 5.975 9.536 5.305 10.743 4.364 11.414 5.438 11.347 3.727 11.348 3.861 12.221 3.827 12.221 2.921 12.892 2.384 13.025 2.148 25.717 3.458 13.699 0.773h40.488l13.498-1.712 13.561-1.613 13.832-1.443 12.826-3.088 13.562-2.887 12.725-3.291 13.933-3.76 12.758-4.498 12.219-5.17 13.028-5.439 11.917-5.975 11.55-6.647 11.313-7.319 9.803-6.748 4.5-3.861 4.769-2.753 9.063-7.722 7.657-7.453 7.586-7.688 7.454-8.492 6.109-8.225 7.251-8.494 5.103-9.131 5.136-8.125 5.473-9.432 4.499-8.226 7.655-17.389 3.759-8.998 2.923-8.393 2.92-8.996 2.62-8.528 1.88-7.284 2.35-8.629 4.164-15.376 2.653-13.428 1.71-13.026 1.479-10.475 2.351-15.913 0.536-2.551 1.879-2.887 5.038-8.258 3.221-5.54 2.888-5.874 3.693-6.211 3.223-7.454 2.080-7.687 2.283-8.359 1.746-8.627 0.806-4.229 0.671-5.171v-4.531l-0.671-4.532v-5.574l-1.344-5.438-2.415-10.476-2.755-5.304-2.013-5.975v-1.477l0.939-1.848 2.752-4.396 11.954-17.659 9.466-13.227 4.5-8.93 6.11-9.667 5.303-10.61 6.112-11.413 6.109-12.759 6.883-14.469 3.859-8.898 3.559-8.594 3.091-9.2 3.022-8.19 2.282-8.662 2.349-8.091 2.954-15.811 2.351-16.182 1.611-14.301v-20.21l-1.075-7.185-1.543-12.322-2.148-11.144-3.291-10.072-1.208-4.129-2.282-4.902-1.949-3.459-2.551-4.262-2.284-2.653-2.887-3.458-2.551-2.752-2.751-2.417-3.292-1.445-2.955-1.443-2.415-0.805h-3.694l-2.382 0.805-4.533 2.216-2.079 1.478-2.149 1.611-2.385 2.115-2.382 2.382-3.961 4.365-4.701 6.244-3.693 6.378-3.692 5.17-3.592 5.976-5.071 10.608-5.706 11.046-0.671 0.37h-0.94l-2.351-1.712-1.343-2.921-2.215-3.56-3.895-10.775-5.842-15.276-7.521-18.296-5.639-9.165-5.944-9.534-7.018-10.744-7.453-10.541-3.826-4.768-4.633-5.171-10.644-10.474 0.941-0.939 1.442-1.478 5.305-3.156 22.16-10.609 9.67-5.439 9.198-5.304 9.131-6.647 8.124-6.916 3.962-3.055 2.955-3.593 3.019-4.095 2.552-4.532 1.345-3.726 1.677-4.498 0.673-3.828 0.803-4.531-0.803-3.057v-3.020l-0.673-3.223-1.677-2.888-0.673-2.282-1.478-2.753-4.029-5.473-3.691-4.398-2.887-3.289-2.418-2.417-6.109-4.498-6.917-3.861-7.384-3.727-7.857-3.558-8.863-3.425-4.699-1.476-4.232-1.21-10.207-2.383-10.609-2.249-10.608-2.284-11.548-1.847-11.952-0.502-12.222-1.477h-37.938l-13.696 0.805-12.759 1.174-13.696 1.847-13.63 1.478-14.369 2.014-13.9 3.425-13.562 2.685-13.498 3.827-13.832 4.902-13.561 4.129-7.119 2.384-6.379 2.283-4.028 1.544-3.962 0.805h-11.28l-13.024 0.939-6.615 0.672-8.494 0.938-5.439-4.9-7.454-4.667-10.071-4.934-11.146-6.111-6.782-3.288-7.051-2.653-15.645-6.379-8.494-2.114-8.896-2.417-12.355-2.351-7.722-0.67-8.192-0.671-8.528-0.941-9.937-0.402h-40.59l-22.93 0.402-22.225 2.283-11.28 1.545-10.878 1.611-10.608 1.612-10.609 2.114-9.837 3.191-9.836 2.249-8.863 3.593-8.394 3.288-7.789 3.761-6.781 4.095-6.783 4.903-2.282 2.416-3.022 2.888-2.283 2.55-2.081 2.888-1.881 2.954-1.477 2.888-2.115 6.244-0.772 3.19-0.94 3.592v3.291l0.94 3.725v3.727l0.772 3.726v7.418l0.369 3.998 1.746 4.531 1.477 4.498 2.687 5.438 1.946 2.116 1.612 2.382 4.229 5.171 3.358 2.686 3.156 1.846 2.922 2.382 4.665 1.478 3.693 2.218 4.633 2.416 5.305 1.579 5.304 1.611 6.11 1.311 5.841 0.805 6.917 0.938 7.453 0.538 1.98 0.67h0.402l0.941 0.805v0.873l-1.344 1.881-3.995 1.88-9.937 8.594-6.648 5.305-7.722 6.781-7.789 7.554-8.124 9.701-9.265 10.878-3.492 5.842-4.634 6.11-3.961 7.049-3.558 7.687-4.835 7.286-3.156 8.394-3.727 8.325-3.726 9.333-2.753 8.863-2.551 11.012-0.805 0.403h-0.773l-0.403 0.806h-0.94l-1.578-0.806-0.805-0.403-1.073-1.847-0.403-2.249-0.805-2.015-1.41-3.289-4.566-8.124-2.351-4.903-3.726-4.229-3.995-5.17-4.366-5.706-4.633-5.072-5.439-4.901-5.069-4.633-5.539-3.593-6.11-3.86-5.841-2.25-6.916-1.746-6.782-0.636h-1.612l-1.544 0.636-1.21 2.686-2.014 1.31-2.619 6.377-1.611 3.459-1.746 4.902-1.444 5.17-0.773 5.037-2.149 11.547-0.805 6.783v22.29l0.805 16.584 1.344 8.528 1.578 8.728 1.444 9.434 2.551 8.763 2.887 10.104 2.954 9.804 3.962 10.104 3.726 9.669 5.136 9.835 4.835 10.61 5.841 9.97 6.882 10.743 7.017 9.67 7.319 10.742 6.11 7.453 7.822 8.629 8.226 8.627 3.827 4.095 4.665 4.667 6.748 5.874 6.917 5.942 11.28 10.105 8.528 6.211z"  horiz-adv-x="1024" />

    
    <glyph glyph-name="huati1" unicode="&#58894;" d="M512.001264 895.993173A474.323751 474.323751 0 0 1 35.149135 423.692125a461.429023 461.429023 0 0 1 136.026747-328.689167 17.698647 17.698647 0 0 0 5.056756-11.377702 480.391859 480.391859 0 0 0-13.90608-75.851346c-13.653242-58.911212-25.283782-106.69756 0-126.418911a29.076349 29.076349 0 0 1 22.755404-9.102161c27.306485 0 63.462293 31.857565 104.42202 68.013374a581.526987 581.526987 0 0 0 46.269321 38.937024 9.102162 9.102162 0 0 0 7.332297 0 494.045101 494.045101 0 0 1 168.895664-30.340539 473.3124 473.3124 0 1 1 0 947.130476z m0-896.815749a445.753078 445.753078 0 0 0-163.58607 31.857565c-22.755404 9.102162-47.786348-13.653242-90.768777-52.337429-17.698647-15.423107-48.039186-41.465403-64.473645-53.34878 0 0-1.517027 0-1.517026 1.517027a583.802528 583.802528 0 0 0 13.653242 72.564455c15.928783 65.737833 22.755404 101.135128 2.27554 122.626343a425.526052 425.526052 0 0 0 303.405385 728.931436 429.824295 429.824295 0 0 0 432.352673-427.295916 428.307268 428.307268 0 0 0-431.341322-424.514701zM717.81125 544.042927h-60.681077l13.653243 81.666616a15.928783 15.928783 0 0 1-15.928783 20.479864h-4.551081a25.283782 25.283782 0 0 1-22.755404-20.479864l-13.653242-81.666616h-161.057692l13.653242 81.666616a15.928783 15.928783 0 0 1-15.928782 20.479864h-4.551081a25.283782 25.283782 0 0 1-22.755404-20.479864l-13.653242-81.666616h-104.169182a20.227026 20.227026 0 0 1-20.479864-20.479863v-4.551081a20.227026 20.227026 0 0 1 20.479864-20.479864h97.595399L375.721679 339.749968h-70.288914a20.227026 20.227026 0 0 1-20.479864-20.479863V314.466186a20.227026 20.227026 0 0 1 20.479864-20.479863h61.186752L355.241815 213.331058a15.928783 15.928783 0 0 1 15.928783-20.479864h4.551081a25.283782 25.283782 0 0 1 22.755404 20.479864l13.653242 81.666616h161.31053L559.534774 213.331058a15.928783 15.928783 0 0 1 15.928783-20.479864h4.551081a25.283782 25.283782 0 0 1 22.755404 20.479864l13.90608 80.908102h101.135128a20.227026 20.227026 0 0 1 20.479864 20.479864v4.551081A20.227026 20.227026 0 0 1 717.81125 339.749968h-96.836885l27.306484 159.034989H717.81125a20.227026 20.227026 0 0 1 20.479864 20.479864v4.55108a20.227026 20.227026 0 0 1-20.479864 20.479864zM580.014638 339.749968h-161.057692l27.306485 159.034989h161.310529L580.014638 339.749968z"  horiz-adv-x="1024" />

    
    <glyph glyph-name="weixin" unicode="&#58910;" d="M690.665 605.417c11.584 0 23.024-0.851 34.404-2.122-30.91 143.967-184.816 250.915-360.507 250.915-196.401 0-357.302-133.871-357.302-303.862 0-98.124 53.525-178.701 142.989-241.196l-35.734-107.484 124.877 62.638c44.718-8.853 80.566-17.937 125.168-17.937 11.207 0 22.329 0.548 33.363 1.414-6.991 23.889-11.035 48.906-11.035 74.857 0.002 156.099 134.038 282.775 303.776 282.775zM498.538 702.286c26.896 0 44.718-17.693 44.718-44.583 0-26.779-17.822-44.715-44.718-44.715-26.779 0-53.643 17.937-53.643 44.715 0.001 26.892 26.865 44.583 53.643 44.583zM248.494 612.986c-26.78 0-53.817 17.937-53.817 44.715 0 26.892 27.038 44.583 53.817 44.583 26.778 0 44.601-17.693 44.601-44.583 0-26.778-17.823-44.715-44.601-44.715zM1016.739 326.944c0 142.841-142.93 259.279-303.484 259.279-169.999 0-303.89-116.439-303.89-259.279 0-143.099 133.891-259.276 303.89-259.276 35.588 0 71.495 8.985 107.228 17.937l97.985-53.669-26.866 89.285c71.727 53.801 125.136 125.148 125.136 205.723zM614.749 371.646c-17.794 0-35.761 17.692-35.761 35.745 0 17.807 17.968 35.732 35.761 35.732 27.011 0 44.718-17.925 44.718-35.732 0-18.053-17.708-35.745-44.718-35.745zM811.267 371.646c-17.68 0-35.501 17.692-35.501 35.745 0 17.807 17.822 35.732 35.501 35.732 26.779 0 44.716-17.925 44.716-35.732 0.001-18.053-17.937-35.745-44.716-35.745z"  horiz-adv-x="1024" />

    
    <glyph glyph-name="diqiu" unicode="&#58882;" d="M142.305408 268.8h5.12c14.08 2.56 23.04 16.64 19.2 30.72-5.12 25.6-7.68 51.2-7.68 76.8 0 203.52 165.12 368.64 368.64 368.64 171.52 0 318.72-116.48 358.4-282.88 3.84-14.08 16.64-21.76 30.72-19.2 14.08 3.84 21.76 16.64 19.2 30.72C889.825408 663.04 722.145408 796.16 526.305408 796.16 295.905408 796.16 107.745408 608 107.745408 376.32c0-29.44 2.56-58.88 8.96-88.32 2.56-11.52 12.8-19.2 25.6-19.2zM1065.185408 499.2c-6.4 33.28-38.4 56.32-94.72 69.12-14.08 3.84-28.16-5.12-30.72-19.2-3.84-14.08 5.12-28.16 19.2-30.72 38.4-8.96 53.76-21.76 56.32-30.72 2.56-11.52-17.92-47.36-115.2-96-88.32-44.8-211.2-84.48-344.32-112.64-133.12-28.16-261.12-42.24-359.68-37.12-108.8 5.12-142.08 29.44-144.64 40.96-1.28 8.96 8.96 28.16 44.8 55.04 11.52 7.68 14.08 24.32 5.12 35.84-7.68 11.52-24.32 14.08-35.84 5.12-49.92-37.12-71.68-72.96-64-106.24 8.96-43.52 65.28-67.84 147.2-78.08C219.105408 49.92 366.305408-42.24 526.305408-42.24c225.28 0 409.6 175.36 418.56 400.64 81.92 44.8 130.56 93.44 120.32 140.8zM526.305408 8.96c-130.56 0-250.88 70.4-317.44 181.76h25.6c98.56 0 216.32 14.08 332.8 39.68 117.76 25.6 234.24 61.44 325.12 102.4C869.345408 148.48 715.745408 8.96 526.305408 8.96zM612.065408 650.24c-12.8 3.84-28.16-2.56-32-16.64-3.84-14.08 2.56-28.16 16.64-32 52.48-16.64 99.84-51.2 133.12-96 5.12-6.4 12.8-10.24 20.48-10.24 5.12 0 10.24 1.28 15.36 5.12 11.52 8.96 14.08 24.32 5.12 35.84-39.68 53.76-96 93.44-158.72 113.92zM417.505408 648.96c-12.8-5.12-20.48-19.2-16.64-32 3.84-10.24 14.08-17.92 24.32-17.92 2.56 0 5.12 0 7.68 1.28 26.88 8.96 55.04 14.08 83.2 14.08 14.08 0 25.6 11.52 25.6 25.6s-11.52 25.6-25.6 25.6c-33.28-1.28-66.56-6.4-98.56-16.64z"  horiz-adv-x="1066" />

    
    <glyph glyph-name="youxiang" unicode="&#58954;" d="M999.053 747.23v-545.926c0-5.447-0.655-10.864-1.756-16.2l-0.016-0.073c-0.060-0.296-0.122-0.593-0.184-0.89-7.778-37.14-40.614-63.69-78.561-63.69h-796.594c-27.905 0-54.733 11.593-73.253 32.468-9.571 10.748-17.148 23.512-21.998 37.547 12.636-26.608 6.593-15.711 2.988-3.758 2.152-11.692-3.853 7.461-3.853 26.989v518.659c0 30.84 20.010 58.209 49.48 67.297l0.925 0.282c11.293 3.383 23.052 4.948 34.842 4.948h839.57c1.287-0.484 2.535-1.194 3.864-1.419 24.205-4.083 38.525-18.16 43.015-42.293l0.010-0.048c0.876-4.59 1.52-9.22 1.52-13.893zM512.439 394.938l428.662 360.762c-62.868 3.666-844.296 1.513-853.212-2.41l424.55-358.352zM639.599 437.841c-36.51-30.773-72.436-61.070-108.38-91.342-13.063-11-24.363-11.080-37.257-0.23-15.322 12.892-30.581 25.859-45.879 38.78-20.147 17.017-40.305 34.024-60.69 51.23-95.139-88.196-189.838-175.984-284.536-263.774l0.986-2.2h829.997c-98.34 89.414-195.967 178.18-294.24 267.536zM349.922 467.99c-91.952 77.687-182.939 154.559-274.95 232.298v-487.148l274.95 254.85zM677.212 469.528l272.818-248.013v477.85l-272.816-229.836z"  horiz-adv-x="1024" />

    
    <glyph glyph-name="miantiao" unicode="&#58890;" d="M850.09572 486.11587c10.410393 0 18.807793 8.269688 18.807794 18.422223 0 10.197539-8.397401 18.42344-18.807794 18.42344h-373.029953v0.215287c0 27.932547 2.312204 49.227693 5.6753 65.33528h367.354653c10.410393 0 18.807793 8.269688 18.807794 18.423439 0 10.197539-8.397401 18.422223-18.807794 18.422223h-354.11634c0.107035 0.172716 0.19461 0.300428 0.279751 0.471929 7.497332 11.99646 14.291636 13.880524 15.406992 14.139597 9.855756 0.554637 17.696087 8.567684 17.696087 18.379653 0 10.197539-8.438755 18.42344-18.811443 18.423439-3.730421 0-23.29111-1.157927-41.090583-24.16442-19.880578-25.706701-29.949188-69.237201-29.949188-129.432357v-90.047039l-66.560103 0.051085-0.405031 100.322422c0 54.7096 10.389716 81.317586 19.131331 93.956258 7.432867 10.753392 14.245417 12.295672 15.274415 12.512175 9.938465 0.469495 17.84326 8.523897 17.84326 18.379653 0 10.197539-8.398617 18.42344-18.765223 18.42344-3.662308 0-22.858104-1.072785-40.660009-22.321712-20.157897-24.12185-30.376113-64.781859-30.376113-121.036172l0.405031-100.206872-68.365107 0.052301 0.673836 67.979536c0.192177 1.070352 0.300428 2.184492 0.300428 3.297415 0 1.028998-0.086358 2.015425-0.235964 3.000636l0.235964 24.506203v0.1715c-0.086358 55.354244 10.325251 82.260226 19.085112 95.070397 7.455977 10.882321 14.289204 12.468388 15.337663 12.683675 9.940897 0.469495 17.845693 8.523897 17.845692 18.379653 0 10.197539-8.397401 18.42344-18.787116 18.42344-3.062667 0-19.193364-0.813711-35.539346-16.839805-8.88879-8.739184-16.12948-20.307503-21.698961-34.574813H196.971589c-10.369038 0-18.787116-8.225901-18.787116-18.422224 0-10.153751 8.418078-18.42344 18.787116-18.423439H234.523928c-2.741562-16.579514-4.091665-35.344737-4.070988-56.253097l-0.085142-9.298686H196.971589c-10.369038 0-18.787116-8.225901-18.787116-18.42344 0-10.153751 8.418078-18.422223 18.787116-18.422223h33.032533l-0.526662-52.825537-56.283505 0.042571c-10.367822 0-18.765223-8.225901-18.787116-18.379652 0-1.714996 0.064464-42.460147 13.409812-96.444828 7.840331-31.746894 18.701974-61.567153 32.261392-88.685989 17.096446-34.189243 38.581337-64.137215 63.839219-88.946279 61.308079-60.28273 144.277414-90.830343 246.634722-90.830342 103.129664 0 186.50403 30.720328 247.77197 91.301054 25.01827 24.807848 46.313416 54.669462 63.194575 88.77478 13.367241 27.033694 24.034275 56.767596 31.661752 88.38556 12.981671 53.768177 12.766384 94.345477 12.766384 96.01547-0.085142 10.111181-8.483759 18.295727-18.765222 18.295727l-370.115676 0.282184V486.11587h373.029953zM816.333402 325.964402c-7.02662-28.876403-16.796018-55.953885-28.961545-80.418734-15.040883-30.247184-33.848676-56.639883-55.955101-78.448312-53.898322-53.211107-128.190504-80.203447-220.865989-80.203447-72.925051 0-134.833987 16.967517-184.041003 50.428191-39.266119 26.690695-70.886516 64.137215-93.95869 111.224204-28.85451 58.909517-37.208123 118.677748-39.607902 147.940937l46.627224-0.037705a19.068084 19.068084 0 0 1 8.298879-2.017858h0.1715a18.974428 18.974428 0 0 1 8.493489 2.004478l571.024458-0.460981c-1.199281-15.942168-4.112342-41.049228-11.22532-70.010773z"  horiz-adv-x="1024" />

    
    <glyph glyph-name="paihangbang-" unicode="&#58892;" d="M512.026407 896C229.245586 896 0 666.772018 0 384.008802c0-282.763216 229.245586-511.991198 512.026407-511.991198 282.763216 0 511.991198 229.227982 511.991197 511.991198C1024.017604 666.772018 794.772018 896 512.026407 896z m-170.270566-760.055977h-143.740609c-24.223769 0-43.940791 19.910671-43.940791 44.363299V492.804511a44.891433 44.891433 0 0 0 44.873829 44.768202h142.807571v-401.62869z m302.180962 0.017605H380.168824l-0.035209 507.836539c0 24.54065 19.717022 44.48653 43.976 44.486531h175.815979c24.258978 0 43.958396-19.94588 43.958395-44.486531v-221.658053h0.052814v-286.178486z m226.04157 44.345694c0-24.452628-19.717022-44.363299-43.958396-44.363299h-143.687796V424.534324h142.737154a45.067478 45.067478 0 0 0 44.909038-45.102688v-199.124314z"  horiz-adv-x="1024" />

    
    <glyph glyph-name="chushimao" unicode="&#59395;" d="M507.4 0.7c-61 0-121.9 0.1-183.1-0.3-14.7 0-28.9 2.7-41.7 10.2-27.8 16.3-41.3 40.9-41.3 72.9 0 73 0 146.2 0.1 219.3 0.1 4.5-1.2 6.6-5.5 8.5-89.1 39.1-168.8 93.3-168.8 201.3 0 130.5 120.2 210 254.5 205.2 5 0 8.3 1.4 11.8 5 47.3 49.1 105 74.6 173 74.8 68.8 0.2 127.3-25.6 174.9-75.4 2.9-2.9 5.7-4.1 9.9-4.4 15.8-1.2 32-1.7 47.5-4.9 111.5-23.1 234.3-136.5 211-248-15.1-72.2-57.1-123.4-124.2-154-3.7-1.6-4.8-3.5-4.7-7.3 0.2-11.3 0.2-22.8 0-34.1-0.1-3.8-0.5-7.7-1.6-11.3-3.7-12.3-8.1-19.9-20.8-18-13.7 2-20.9 12.5-21 27.2-0.1 25.3 0.1 41-0.1 66.3 0 4.1 1.1 5.5 5.3 6.4 82 16.6 137.5 95.8 126.5 178.3-11.8 89.3-152.7 168.9-241.4 154.4-4.1-0.6-6.5 0.1-9.1 3.7-33.2 45.4-77.8 72.5-133.9 77.2-70.2 5.9-126.8-20.9-169-77.5-2.4-3.3-4.8-4.1-8.6-3.4-17.7 3.1-35.4 2.7-53.2-0.1-104.4-11.4-186.1-66.9-186.1-160.6 0-93.8 104-147.2 170.7-161.7 5.2-1.2 6.6-2.9 6.6-8.1-0.2-85.6-0.2-171.2-0.1-256.8 0-4 0.1-8.2 1.1-12 3.3-12.8 23.3-29.1 39.3-29.1h363.7c2.3 0 4.8 0 7.1 0.2 12.9 1.1 38.7 21.8 38.9 34.7 0.2 8.8 0.4 17.6 0.3 26.4-0.2 17.4-26.9 41.7-44.2 41.7h-313c-3.5 0-7.1-0.1-10.4 0.8-13.6 3.5-21.4 6.5-19.8 21.2 1.4 12.9 12.8 17.6 27.6 17.6 105.6 0.1 211.3 0.3 316.9-0.1 40.5-0.1 72.3-26.8 79.1-66.1 2.2-11.9 1.4-24.2 1.7-36.3 0.3-13.6-2-26.8-8.4-38.9-15.6-29.7-40.6-44.7-74-44.8-61.2-0.2-122.3-0.1-183.5-0.1z"  horiz-adv-x="1024" />

    
    <glyph glyph-name="jiqiren" unicode="&#58944;" d="M833.8 602.25A219.55 219.55 0 0 1 677.53 667H532.86l-0.39 45.23 59.21 54.32a21 21 0 0 1-28.39 30.95L511 749.53l-47.29 47.32a21 21 0 0 1-29.7-29.7l56.47-56.47 0.38-43.7H346.47a221 221 0 0 1-221-221V26a61.07 61.07 0 0 1 61-61h651.06a61.07 61.07 0 0 1 61 61V446a219.55 219.55 0 0 1-64.73 156.25zM856.53 26a19 19 0 0 0-19-19H186.47a19 19 0 0 0-19 19V446c0 98.7 80.3 179 179 179h331.06c98.7 0 179-80.3 179-179zM428.64 356.17a81.3 81.3 0 1 1-81.3-81.3 81.39 81.39 0 0 1 81.3 81.3z m-120.6 0a39.3 39.3 0 1 0 39.3-39.3 39.35 39.35 0 0 0-39.34 39.3zM656.85 477.1A101.12 101.12 0 1 1 758 376a101.23 101.23 0 0 1-101.15 101.1z m0-160.24A59.12 59.12 0 1 0 716 376a59.19 59.19 0 0 0-59.15-59.14zM691 184.37c-41.38-25.56-85.74-41.52-131.85-47.45-37-4.76-75.4-3.12-114 4.89-66.32 13.75-111 41.89-111.77 42.36a21 21 0 0 1-22.72-35.33c2-1.31 50.6-32.22 124.28-47.81a397.5 397.5 0 0 1 82.35-8.77 370.3 370.3 0 0 1 46.14 2.87c52.46 6.59 102.8 24.59 149.63 53.51A21 21 0 0 1 691 184.37z"  horiz-adv-x="1024" />

    


  </font>
</defs>
</svg>
